<svg width="144" height="65" viewBox="0 0 144 65" fill="none" xmlns="http://www.w3.org/2000/svg">
<mask id="path-1-outside-1_1089_2840" maskUnits="userSpaceOnUse" x="-7.12328" y="-4.12296" width="132.027" height="70.164" fill="black">
<rect fill="white" x="-7.12328" y="-4.12296" width="132.027" height="70.164"/>
<path d="M3.03656 56.1749C3.72402 55.2782 4.61586 54.3006 5.71211 53.2421C6.85419 52.1238 8.07906 51.0214 9.38672 49.9347C10.7402 48.7883 12.1237 47.6647 13.537 46.5639C15.0033 45.4562 16.4008 44.4381 17.7295 43.5096C19.0582 42.5812 20.2953 41.7723 21.4407 41.083C22.5862 40.3937 23.5113 39.8679 24.2161 39.5056L23.1062 39.6535C19.794 39.8263 17.2854 39.57 15.5803 38.8847C13.8752 38.1993 12.7623 37.1131 12.2414 35.6259C11.8226 34.5008 11.9342 33.1173 12.5761 31.4752C13.2181 29.8331 14.223 28.089 15.5909 26.2429C16.9587 24.3968 18.6208 22.5383 20.5772 20.6675C22.5265 18.7439 24.599 16.9381 26.7949 15.2501C29.0435 13.555 31.3168 12.0445 33.6147 10.7186C35.9584 9.3329 38.1857 8.28477 40.2965 7.5742C42.4602 6.85659 44.4353 6.53983 46.2217 6.62392C48.0609 6.70098 49.5669 7.30548 50.7398 8.43745C51.6661 9.33388 51.9509 10.6646 51.5943 12.4297C51.2307 14.1421 50.2469 16.0444 48.6428 18.1367C47.0317 20.1762 44.7829 22.2739 41.8962 24.4296C39.0554 26.5256 35.5981 28.4354 31.5242 30.1589C31.4185 30.173 31.3392 30.1835 31.2864 30.1906C31.2265 30.1449 31.179 29.9902 31.1439 29.7265C31.0241 29.6351 31.0065 29.5032 31.0912 29.3309C31.2287 29.1516 31.3767 29.0514 31.5353 29.0303C35.662 27.2997 39.04 25.4005 41.6694 23.3327C44.3517 21.2578 46.4031 19.2938 47.8239 17.4406C49.2376 15.5347 50.0875 13.8381 50.3735 12.3508C50.7124 10.8565 50.5983 9.79816 50.0313 9.17592C49.1508 8.21971 47.9002 7.71537 46.2794 7.66289C44.7114 7.60337 42.9249 7.92186 40.9198 8.61835C38.9604 9.25507 36.8547 10.2065 34.6027 11.4726C32.3965 12.679 30.2149 14.0699 28.0579 15.6454C25.8938 17.1682 23.8565 18.8351 21.946 20.6461C20.0285 22.4045 18.3823 24.1803 17.0074 25.9737C15.6255 27.7143 14.5871 29.4092 13.8923 31.0583C13.1905 32.6547 13.0031 34.0752 13.3303 35.3198C13.5273 35.9913 13.9288 36.582 14.5346 37.0917C15.1404 37.6014 16.0264 37.9933 17.1926 38.2674C18.3587 38.5414 19.8315 38.6941 21.6108 38.7255C23.3832 38.7041 25.5308 38.4717 28.0538 38.0283C28.371 37.986 28.577 38.1196 28.672 38.429C28.767 38.7384 28.6031 38.9212 28.1803 38.9776C26.3655 39.4877 24.2439 40.5217 21.8156 42.0797C19.3802 43.5849 16.9694 45.2748 14.5833 47.1492C12.2429 48.9638 10.0911 50.7802 8.12773 52.5983C6.15737 54.3636 4.75269 55.7316 3.91369 56.7021C3.16636 57.5531 2.60402 58.3795 2.22667 59.1812C1.78944 59.9372 1.56013 60.6387 1.53872 61.2856C1.51731 61.9326 1.72321 62.4687 2.15642 62.8941C2.58261 63.2667 3.252 63.4459 4.16459 63.4317C5.44716 63.3682 7.09103 62.9882 9.09618 62.2917C11.1472 61.5355 13.1436 60.5718 15.0856 59.4006C16.7913 58.4756 18.7826 57.2711 21.0594 55.787C23.389 54.2958 25.6658 52.8117 27.8897 51.3346C30.1137 49.8575 32.1138 48.5176 33.8902 47.3148C35.6665 46.1121 36.8736 45.2804 37.5116 44.8197C37.6701 44.7985 37.8252 44.751 37.9767 44.6772C38.1811 44.5963 38.3432 44.6015 38.463 44.6929C38.5192 45.1148 38.4486 45.3926 38.2512 45.5262C37.5745 46.0995 36.325 47.0173 34.5028 48.2799C32.6807 49.5424 30.6312 50.9158 28.3544 52.3999C26.0776 53.884 23.7744 55.3716 21.4447 56.8628C19.1081 58.3012 17.0904 59.5093 15.3916 60.487C12.2444 62.3018 9.52203 63.4695 7.2245 63.9903C4.92697 64.511 3.2075 64.5254 2.0661 64.0333C0.871836 63.5483 0.345457 62.6254 0.486963 61.2647C0.575613 59.911 1.42548 58.2144 3.03656 56.1749Z"/>
<path d="M38.8983 46.8893L39.2686 46.0348C39.3921 45.75 39.4926 45.4951 39.5702 45.27C39.6937 44.9852 39.7872 44.6776 39.8507 44.347L39.8296 44.1888L39.6922 44.3682L39.2586 44.748C38.8709 45.068 38.4832 45.388 38.0955 45.708C37.7077 46.028 37.3658 46.2883 37.0698 46.4887C36.7737 46.6892 36.4954 46.6189 36.2348 46.2779C35.9953 46.0951 36.0729 45.8701 36.4676 45.6028C36.7637 45.4023 37.1091 45.1685 37.5038 44.9012C37.8986 44.6339 38.237 44.3473 38.519 44.0414L39.2275 43.3029L39.64 42.7649L39.6189 42.6067C39.6895 42.3289 39.8305 42.1759 40.0419 42.1478C40.2463 42.0669 40.4224 42.1776 40.5703 42.4799L40.771 42.7752C41.0279 43.4925 41.0206 44.2449 40.7489 45.0325C41.1825 44.6527 41.787 44.1428 42.5624 43.5028C43.3308 42.81 44.1327 42.1664 44.968 41.5721C45.8561 40.9707 46.7055 40.4819 47.5161 40.1055C48.3795 39.7221 49.1195 39.6236 49.736 39.8098C50.0742 39.9258 50.2679 40.1683 50.3171 40.5375C50.3662 40.9067 50.3396 41.3128 50.2373 41.7558C50.1807 42.1391 50.0714 42.5294 49.9091 42.9267C49.7469 43.324 49.6534 43.6317 49.6286 43.8497L49.6497 44.0079C50.0832 43.6281 50.6419 43.178 51.3257 42.6575C52.0024 42.0843 52.7161 41.5867 53.4668 41.1646C54.2105 40.6898 54.9417 40.3241 55.6606 40.0673C56.4324 39.8034 57.0966 39.7418 57.6532 39.8824C58.15 39.9772 58.3507 40.2725 58.2554 40.7683C58.2694 40.8738 58.2835 40.9792 58.2975 41.0847C58.3116 41.1902 58.2728 41.3027 58.1811 41.4223C57.9801 41.9321 57.6539 42.5123 57.2026 43.1629C56.7514 43.8134 56.3988 44.3971 56.1449 44.914C55.9438 45.4239 55.9895 45.7667 56.2818 45.9424C56.6201 46.0584 57.4816 45.8631 58.8666 45.3566C62.5139 44.0656 65.5237 42.4302 67.8958 40.4503C67.9804 40.278 68.1055 40.2077 68.2711 40.2393C68.4367 40.2709 68.5301 40.3658 68.5511 40.524C68.7906 40.7068 68.8187 40.9178 68.6354 41.1569C67.2291 42.3104 65.673 43.3496 63.9673 44.2746C62.3144 45.1925 60.6633 45.9224 59.0141 46.4641C57.5693 46.9249 56.5192 47.1185 55.8639 47.0447C55.2543 46.9112 54.8986 46.6634 54.7965 46.3013C54.6875 45.8864 54.7564 45.3942 55.0033 44.8245C55.296 44.1951 55.5922 43.5921 55.892 43.0154C56.2445 42.4317 56.5319 41.964 56.754 41.6124C57.022 41.201 57.0996 40.9759 56.9869 40.9373C56.5958 40.8283 55.995 40.962 55.1844 41.3384C54.4267 41.7077 53.6073 42.2194 52.7262 42.8735C51.838 43.4749 50.9604 44.1554 50.0933 44.915C49.2262 45.6746 48.5635 46.3533 48.1052 46.9511C47.9677 47.1304 47.8337 47.3361 47.7032 47.5682C47.6186 47.7405 47.5304 47.8864 47.4388 48.006L47.2802 48.0271C47.0159 48.0623 46.794 48.0114 46.6143 47.8743C46.4277 47.6844 46.4031 47.4998 46.5406 47.3205C47.1611 46.3254 47.6566 45.4006 48.0269 44.5461C48.443 43.6319 48.7217 42.897 48.8629 42.3415C49.0499 41.7261 49.0994 41.2901 49.0114 41.0335C48.9693 40.7171 48.7702 40.6362 48.4143 40.791C47.8469 40.9739 47.1456 41.3625 46.3103 41.9569C45.4679 42.4985 44.6132 43.1491 43.7461 43.9087C42.872 44.6155 42.0278 45.3452 41.2136 46.0978C40.3993 46.8503 39.7366 47.529 39.2255 48.1339C39.088 48.3132 38.954 48.5189 38.8236 48.751C38.7389 48.9233 38.6508 49.0692 38.5591 49.1888L38.4005 49.2099C38.1363 49.2451 37.9143 49.1942 37.7347 49.0571C37.548 48.8672 37.5234 48.6826 37.6609 48.5033L38.8983 46.8893Z"/>
<path d="M67.078 45.2289C66.7047 44.8492 66.5851 44.3553 66.7192 43.747C66.8534 43.1387 67.0509 42.6025 67.3119 42.1383C66.8783 42.5181 66.5364 42.7784 66.2862 42.919C66.0289 43.007 65.7787 43.1477 65.5355 43.3411C65.2923 43.5345 65.0739 43.5099 64.8802 43.2673C64.6865 43.0248 64.7112 42.8068 64.9544 42.6134C65.5536 42.2652 65.9977 41.9645 66.2867 41.7113C66.6286 41.451 66.9211 41.2242 67.1643 41.0308C67.4005 40.7846 67.6631 40.535 67.9521 40.2818C68.2412 40.0286 68.6553 39.705 69.1946 39.3111C69.4906 39.1107 69.739 39.1581 69.9397 39.4534C70.1933 39.7417 70.1985 39.9825 69.9553 40.176C69.4301 40.6753 69.0599 41.1272 68.8448 41.5316C68.6297 41.9359 68.4181 42.3667 68.2101 42.8238C67.8785 43.5657 67.8061 44.0316 67.9928 44.2214C68.1794 44.4113 68.4842 44.478 68.9071 44.4217C69.3299 44.3654 69.7986 44.2493 70.3131 44.0734C70.8205 43.8448 71.2258 43.6566 71.5289 43.5089C72.5439 43.0516 73.647 42.4485 74.8382 41.6994C76.0295 40.9503 77.2172 40.1748 78.4014 39.3729C78.5389 39.1936 78.664 39.1233 78.7768 39.1619C78.8825 39.1478 79.0216 39.183 79.1943 39.2673C79.395 39.5626 79.3244 39.8404 78.9825 40.1007C78.4961 40.4875 77.6872 41.0783 76.5558 41.8731C75.4703 42.6081 74.2985 43.301 73.0403 43.9516C71.7821 44.6023 70.5857 45.1106 69.451 45.4764C68.3092 45.7895 67.5183 45.707 67.078 45.2289ZM69.8088 36.6529C69.689 36.5616 69.6186 36.4367 69.5975 36.2785C69.6293 36.1133 69.7245 36.0201 69.883 35.999C70.158 35.6403 70.433 35.2816 70.708 34.9229C71.0288 34.5045 71.2897 34.0403 71.4908 33.5305C71.6002 33.1402 71.8046 33.0593 72.104 33.2878C72.5549 33.4424 72.6887 33.6393 72.5054 33.8784C71.9799 35.1829 71.3523 36.1253 70.6227 36.7056C70.2808 36.9658 70.0095 36.9483 69.8088 36.6529Z"/>
<path d="M79.5698 44.3701C79.08 44.328 78.6027 44.1769 78.1377 43.9167C77.7185 43.5969 77.4703 43.1469 77.393 42.5667C77.3509 42.2503 77.3581 41.9004 77.4146 41.5172C77.524 41.1269 77.6299 40.7102 77.7322 40.2672L78.0072 39.9085L77.9861 39.7503C77.6867 39.5218 77.7115 39.3038 78.0604 39.0963L78.6525 38.6954L79.0228 37.841C79.9361 36.2164 81.1913 34.3316 82.7883 32.1866C84.4311 29.9818 86.1673 27.8719 87.9969 25.857C89.8194 23.7893 91.6435 21.936 93.4694 20.2973C95.3411 18.5988 96.9589 17.4171 98.3227 16.7524L98.7984 16.689C99.327 16.6186 99.6193 16.7944 99.6756 17.2163C99.6471 17.8105 99.2962 18.6087 98.6228 19.6108C97.9494 20.613 97.0064 21.8121 95.7937 23.2082C95.1839 23.8798 94.2656 24.8609 93.0389 26.1515C91.8122 27.4421 90.4638 28.8294 88.9939 30.3133C87.5769 31.7903 86.1034 33.2479 84.5737 34.6862C83.0967 36.1175 81.8031 37.3096 80.6928 38.2626L79.3711 39.2438L79.2547 39.5813C79.0008 40.0982 78.7997 40.6081 78.6515 41.1109C78.4963 41.561 78.4468 41.997 78.503 42.4189C78.5873 43.0517 79.01 43.398 79.771 43.4576C80.5321 43.5173 81.4605 43.4205 82.5564 43.1671C83.6982 42.854 84.9052 42.4249 86.1774 41.8797C87.5024 41.3275 88.7711 40.7559 89.9834 40.165C91.1888 39.5214 92.2619 38.8954 93.2029 38.2869C94.144 37.6785 94.8048 37.1879 95.1855 36.8152C95.4675 36.5092 95.7318 36.474 95.9783 36.7096C96.2249 36.9451 96.2072 37.2158 95.9252 37.5218C95.3611 38.1337 94.3848 38.881 92.9962 39.7637C91.6534 40.5867 90.145 41.378 88.4711 42.1377C86.8499 42.8904 85.2113 43.5113 83.555 44.0003C81.9446 44.4295 80.6162 44.5527 79.5698 44.3701ZM94.8955 22.5227C95.604 21.7842 96.1645 21.146 96.577 20.608C97.0353 20.0102 97.4442 19.4458 97.8039 18.9148L98.2163 18.3768L98.4702 17.8599L98.0156 18.0815C96.2781 19.1717 94.5528 20.5555 92.8397 22.2329C91.1195 23.8576 89.4892 25.5508 87.9487 27.3126C86.4082 29.0744 85.0228 30.7886 83.7924 32.4554C82.562 34.1222 81.5642 35.5165 80.7992 36.6382L81.8038 35.6993C82.6709 34.9397 83.7477 33.9374 85.0343 32.6926C86.3139 31.3949 87.5934 30.0973 88.873 28.7997C90.2054 27.4951 91.4127 26.2608 92.4949 25.0968C93.5771 23.9328 94.3773 23.0748 94.8955 22.5227Z"/>
<path d="M94.3702 41.5935C93.9969 41.2138 93.8773 40.7198 94.0114 40.1115C94.1456 39.5033 94.3431 38.967 94.604 38.5029C94.1705 38.8827 93.8286 39.1429 93.5784 39.2836C93.3211 39.3715 93.0709 39.5122 92.8277 39.7056C92.5845 39.8991 92.3661 39.8745 92.1724 39.6319C91.9787 39.3893 92.0034 39.1713 92.2466 38.9779C92.8458 38.6297 93.2899 38.329 93.5789 38.0758C93.9208 37.8156 94.2133 37.5888 94.4565 37.3954C94.6927 37.1492 94.9553 36.8995 95.2443 36.6463C95.5334 36.3931 95.9475 36.0696 96.4868 35.6757C96.7828 35.4752 97.0312 35.5227 97.2319 35.818C97.4855 36.1063 97.4907 36.3471 97.2475 36.5405C96.7223 37.0399 96.3521 37.4917 96.137 37.8961C95.9219 38.3005 95.7103 38.7312 95.5023 39.1884C95.1707 39.9303 95.0983 40.3962 95.285 40.586C95.4716 40.7758 95.7764 40.8426 96.1992 40.7863C96.6221 40.7299 97.0908 40.6138 97.6053 40.4379C98.1127 40.2093 98.518 40.0212 98.8211 39.8734C99.8361 39.4162 100.939 38.813 102.13 38.0639C103.322 37.3148 104.509 36.5393 105.694 35.7375C105.831 35.5582 105.956 35.4878 106.069 35.5265C106.175 35.5124 106.314 35.5475 106.486 35.6319C106.687 35.9272 106.617 36.205 106.275 36.4652C105.788 36.8521 104.979 37.4429 103.848 38.2377C102.762 38.9727 101.591 39.6655 100.332 40.3162C99.0743 40.9669 97.8779 41.4751 96.7432 41.841C95.6014 42.1541 94.8104 42.0716 94.3702 41.5935ZM97.101 33.0175C96.9812 32.9261 96.9108 32.8013 96.8897 32.6431C96.9215 32.4778 97.0167 32.3846 97.1752 32.3635C97.4502 32.0048 97.7252 31.6462 98.0002 31.2875C98.321 30.869 98.5819 30.4049 98.783 29.895C98.8924 29.5047 99.0968 29.4238 99.3962 29.6523C99.8471 29.807 99.9809 30.0038 99.7976 30.2429C99.272 31.5475 98.6445 32.4899 97.9149 33.0701C97.573 33.3304 97.3017 33.3128 97.101 33.0175Z"/>
<path d="M103.733 41.4735C103.049 41.1888 102.738 40.6667 102.798 39.9073C102.851 39.0951 103.149 38.3039 103.692 37.5338C104.228 36.711 104.937 35.9725 105.818 35.3184C106.692 34.6115 107.605 34.1948 108.556 34.068C109.19 33.9835 109.763 34.0415 110.274 34.2418C110.837 34.4351 111.22 34.6794 111.42 34.9747C111.547 35.1188 111.515 35.2841 111.325 35.4705C111.18 35.5971 111.022 35.6182 110.849 35.5338C110.564 35.4108 110.279 35.2878 109.993 35.1648C109.754 34.982 109.317 34.9328 108.683 35.0173C108.048 35.1018 107.389 35.4043 106.705 35.9248C106.022 36.4453 105.428 37.0343 104.924 37.6919C104.465 38.2896 104.139 38.8698 103.945 39.4324C103.797 39.9352 103.895 40.271 104.241 40.4397C104.73 40.4818 105.351 40.2919 106.101 39.8698C106.845 39.395 107.608 38.864 108.39 38.2767C109.219 37.6296 109.991 36.9632 110.706 36.2775C111.475 35.5847 112.121 34.9886 112.647 34.4893C113.119 33.997 113.456 33.8985 113.656 34.1938C113.91 34.482 113.919 34.7493 113.682 34.9954C113.058 35.5616 112.664 36.2315 112.498 37.005C112.378 37.7188 112.513 38.1301 112.904 38.2391C113.295 38.348 113.892 38.1879 114.696 37.7588C115.492 37.277 116.308 36.7389 117.144 36.1446C117.979 35.5503 118.761 34.963 119.491 34.3827C120.221 33.8024 120.681 33.4191 120.871 33.2327C121.167 33.0323 121.415 33.0797 121.616 33.375C121.87 33.6633 121.875 33.9041 121.632 34.0976C121.29 34.3578 120.758 34.8044 120.035 35.4374C119.305 36.0177 118.497 36.6085 117.608 37.2099C116.773 37.8042 115.901 38.323 114.992 38.7661C114.135 39.2022 113.406 39.3799 112.803 39.2991C112.201 39.2184 111.785 38.9249 111.556 38.4186C111.38 37.9053 111.393 37.3937 111.594 36.8839C111.069 37.3832 110.445 37.9494 109.722 38.5824C108.993 39.1626 108.23 39.6937 107.433 40.1755C106.637 40.6573 105.909 41.0495 105.25 41.352C104.584 41.6017 104.078 41.6422 103.733 41.4735Z"/>
</mask>
<path d="M3.03656 56.1749C3.72402 55.2782 4.61586 54.3006 5.71211 53.2421C6.85419 52.1238 8.07906 51.0214 9.38672 49.9347C10.7402 48.7883 12.1237 47.6647 13.537 46.5639C15.0033 45.4562 16.4008 44.4381 17.7295 43.5096C19.0582 42.5812 20.2953 41.7723 21.4407 41.083C22.5862 40.3937 23.5113 39.8679 24.2161 39.5056L23.1062 39.6535C19.794 39.8263 17.2854 39.57 15.5803 38.8847C13.8752 38.1993 12.7623 37.1131 12.2414 35.6259C11.8226 34.5008 11.9342 33.1173 12.5761 31.4752C13.2181 29.8331 14.223 28.089 15.5909 26.2429C16.9587 24.3968 18.6208 22.5383 20.5772 20.6675C22.5265 18.7439 24.599 16.9381 26.7949 15.2501C29.0435 13.555 31.3168 12.0445 33.6147 10.7186C35.9584 9.3329 38.1857 8.28477 40.2965 7.5742C42.4602 6.85659 44.4353 6.53983 46.2217 6.62392C48.0609 6.70098 49.5669 7.30548 50.7398 8.43745C51.6661 9.33388 51.9509 10.6646 51.5943 12.4297C51.2307 14.1421 50.2469 16.0444 48.6428 18.1367C47.0317 20.1762 44.7829 22.2739 41.8962 24.4296C39.0554 26.5256 35.5981 28.4354 31.5242 30.1589C31.4185 30.173 31.3392 30.1835 31.2864 30.1906C31.2265 30.1449 31.179 29.9902 31.1439 29.7265C31.0241 29.6351 31.0065 29.5032 31.0912 29.3309C31.2287 29.1516 31.3767 29.0514 31.5353 29.0303C35.662 27.2997 39.04 25.4005 41.6694 23.3327C44.3517 21.2578 46.4031 19.2938 47.8239 17.4406C49.2376 15.5347 50.0875 13.8381 50.3735 12.3508C50.7124 10.8565 50.5983 9.79816 50.0313 9.17592C49.1508 8.21971 47.9002 7.71537 46.2794 7.66289C44.7114 7.60337 42.9249 7.92186 40.9198 8.61835C38.9604 9.25507 36.8547 10.2065 34.6027 11.4726C32.3965 12.679 30.2149 14.0699 28.0579 15.6454C25.8938 17.1682 23.8565 18.8351 21.946 20.6461C20.0285 22.4045 18.3823 24.1803 17.0074 25.9737C15.6255 27.7143 14.5871 29.4092 13.8923 31.0583C13.1905 32.6547 13.0031 34.0752 13.3303 35.3198C13.5273 35.9913 13.9288 36.582 14.5346 37.0917C15.1404 37.6014 16.0264 37.9933 17.1926 38.2674C18.3587 38.5414 19.8315 38.6941 21.6108 38.7255C23.3832 38.7041 25.5308 38.4717 28.0538 38.0283C28.371 37.986 28.577 38.1196 28.672 38.429C28.767 38.7384 28.6031 38.9212 28.1803 38.9776C26.3655 39.4877 24.2439 40.5217 21.8156 42.0797C19.3802 43.5849 16.9694 45.2748 14.5833 47.1492C12.2429 48.9638 10.0911 50.7802 8.12773 52.5983C6.15737 54.3636 4.75269 55.7316 3.91369 56.7021C3.16636 57.5531 2.60402 58.3795 2.22667 59.1812C1.78944 59.9372 1.56013 60.6387 1.53872 61.2856C1.51731 61.9326 1.72321 62.4687 2.15642 62.8941C2.58261 63.2667 3.252 63.4459 4.16459 63.4317C5.44716 63.3682 7.09103 62.9882 9.09618 62.2917C11.1472 61.5355 13.1436 60.5718 15.0856 59.4006C16.7913 58.4756 18.7826 57.2711 21.0594 55.787C23.389 54.2958 25.6658 52.8117 27.8897 51.3346C30.1137 49.8575 32.1138 48.5176 33.8902 47.3148C35.6665 46.1121 36.8736 45.2804 37.5116 44.8197C37.6701 44.7985 37.8252 44.751 37.9767 44.6772C38.1811 44.5963 38.3432 44.6015 38.463 44.6929C38.5192 45.1148 38.4486 45.3926 38.2512 45.5262C37.5745 46.0995 36.325 47.0173 34.5028 48.2799C32.6807 49.5424 30.6312 50.9158 28.3544 52.3999C26.0776 53.884 23.7744 55.3716 21.4447 56.8628C19.1081 58.3012 17.0904 59.5093 15.3916 60.487C12.2444 62.3018 9.52203 63.4695 7.2245 63.9903C4.92697 64.511 3.2075 64.5254 2.0661 64.0333C0.871836 63.5483 0.345457 62.6254 0.486963 61.2647C0.575613 59.911 1.42548 58.2144 3.03656 56.1749Z" fill="#252D32"/>
<path d="M38.8983 46.8893L39.2686 46.0348C39.3921 45.75 39.4926 45.4951 39.5702 45.27C39.6937 44.9852 39.7872 44.6776 39.8507 44.347L39.8296 44.1888L39.6922 44.3682L39.2586 44.748C38.8709 45.068 38.4832 45.388 38.0955 45.708C37.7077 46.028 37.3658 46.2883 37.0698 46.4887C36.7737 46.6892 36.4954 46.6189 36.2348 46.2779C35.9953 46.0951 36.0729 45.8701 36.4676 45.6028C36.7637 45.4023 37.1091 45.1685 37.5038 44.9012C37.8986 44.6339 38.237 44.3473 38.519 44.0414L39.2275 43.3029L39.64 42.7649L39.6189 42.6067C39.6895 42.3289 39.8305 42.1759 40.0419 42.1478C40.2463 42.0669 40.4224 42.1776 40.5703 42.4799L40.771 42.7752C41.0279 43.4925 41.0206 44.2449 40.7489 45.0325C41.1825 44.6527 41.787 44.1428 42.5624 43.5028C43.3308 42.81 44.1327 42.1664 44.968 41.5721C45.8561 40.9707 46.7055 40.4819 47.5161 40.1055C48.3795 39.7221 49.1195 39.6236 49.736 39.8098C50.0742 39.9258 50.2679 40.1683 50.3171 40.5375C50.3662 40.9067 50.3396 41.3128 50.2373 41.7558C50.1807 42.1391 50.0714 42.5294 49.9091 42.9267C49.7469 43.324 49.6534 43.6317 49.6286 43.8497L49.6497 44.0079C50.0832 43.6281 50.6419 43.178 51.3257 42.6575C52.0024 42.0843 52.7161 41.5867 53.4668 41.1646C54.2105 40.6898 54.9417 40.3241 55.6606 40.0673C56.4324 39.8034 57.0966 39.7418 57.6532 39.8824C58.15 39.9772 58.3507 40.2725 58.2554 40.7683C58.2694 40.8738 58.2835 40.9792 58.2975 41.0847C58.3116 41.1902 58.2728 41.3027 58.1811 41.4223C57.9801 41.9321 57.6539 42.5123 57.2026 43.1629C56.7514 43.8134 56.3988 44.3971 56.1449 44.914C55.9438 45.4239 55.9895 45.7667 56.2818 45.9424C56.6201 46.0584 57.4816 45.8631 58.8666 45.3566C62.5139 44.0656 65.5237 42.4302 67.8958 40.4503C67.9804 40.278 68.1055 40.2077 68.2711 40.2393C68.4367 40.2709 68.5301 40.3658 68.5511 40.524C68.7906 40.7068 68.8187 40.9178 68.6354 41.1569C67.2291 42.3104 65.673 43.3496 63.9673 44.2746C62.3144 45.1925 60.6633 45.9224 59.0141 46.4641C57.5693 46.9249 56.5192 47.1185 55.8639 47.0447C55.2543 46.9112 54.8986 46.6634 54.7965 46.3013C54.6875 45.8864 54.7564 45.3942 55.0033 44.8245C55.296 44.1951 55.5922 43.5921 55.892 43.0154C56.2445 42.4317 56.5319 41.964 56.754 41.6124C57.022 41.201 57.0996 40.9759 56.9869 40.9373C56.5958 40.8283 55.995 40.962 55.1844 41.3384C54.4267 41.7077 53.6073 42.2194 52.7262 42.8735C51.838 43.4749 50.9604 44.1554 50.0933 44.915C49.2262 45.6746 48.5635 46.3533 48.1052 46.9511C47.9677 47.1304 47.8337 47.3361 47.7032 47.5682C47.6186 47.7405 47.5304 47.8864 47.4388 48.006L47.2802 48.0271C47.0159 48.0623 46.794 48.0114 46.6143 47.8743C46.4277 47.6844 46.4031 47.4998 46.5406 47.3205C47.1611 46.3254 47.6566 45.4006 48.0269 44.5461C48.443 43.6319 48.7217 42.897 48.8629 42.3415C49.0499 41.7261 49.0994 41.2901 49.0114 41.0335C48.9693 40.7171 48.7702 40.6362 48.4143 40.791C47.8469 40.9739 47.1456 41.3625 46.3103 41.9569C45.4679 42.4985 44.6132 43.1491 43.7461 43.9087C42.872 44.6155 42.0278 45.3452 41.2136 46.0978C40.3993 46.8503 39.7366 47.529 39.2255 48.1339C39.088 48.3132 38.954 48.5189 38.8236 48.751C38.7389 48.9233 38.6508 49.0692 38.5591 49.1888L38.4005 49.2099C38.1363 49.2451 37.9143 49.1942 37.7347 49.0571C37.548 48.8672 37.5234 48.6826 37.6609 48.5033L38.8983 46.8893Z" fill="#252D32"/>
<path d="M67.078 45.2289C66.7047 44.8492 66.5851 44.3553 66.7192 43.747C66.8534 43.1387 67.0509 42.6025 67.3119 42.1383C66.8783 42.5181 66.5364 42.7784 66.2862 42.919C66.0289 43.007 65.7787 43.1477 65.5355 43.3411C65.2923 43.5345 65.0739 43.5099 64.8802 43.2673C64.6865 43.0248 64.7112 42.8068 64.9544 42.6134C65.5536 42.2652 65.9977 41.9645 66.2867 41.7113C66.6286 41.451 66.9211 41.2242 67.1643 41.0308C67.4005 40.7846 67.6631 40.535 67.9521 40.2818C68.2412 40.0286 68.6553 39.705 69.1946 39.3111C69.4906 39.1107 69.739 39.1581 69.9397 39.4534C70.1933 39.7417 70.1985 39.9825 69.9553 40.176C69.4301 40.6753 69.0599 41.1272 68.8448 41.5316C68.6297 41.9359 68.4181 42.3667 68.2101 42.8238C67.8785 43.5657 67.8061 44.0316 67.9928 44.2214C68.1794 44.4113 68.4842 44.478 68.9071 44.4217C69.3299 44.3654 69.7986 44.2493 70.3131 44.0734C70.8205 43.8448 71.2258 43.6566 71.5289 43.5089C72.5439 43.0516 73.647 42.4485 74.8382 41.6994C76.0295 40.9503 77.2172 40.1748 78.4014 39.3729C78.5389 39.1936 78.664 39.1233 78.7768 39.1619C78.8825 39.1478 79.0216 39.183 79.1943 39.2673C79.395 39.5626 79.3244 39.8404 78.9825 40.1007C78.4961 40.4875 77.6872 41.0783 76.5558 41.8731C75.4703 42.6081 74.2985 43.301 73.0403 43.9516C71.7821 44.6023 70.5857 45.1106 69.451 45.4764C68.3092 45.7895 67.5183 45.707 67.078 45.2289ZM69.8088 36.6529C69.689 36.5616 69.6186 36.4367 69.5975 36.2785C69.6293 36.1133 69.7245 36.0201 69.883 35.999C70.158 35.6403 70.433 35.2816 70.708 34.9229C71.0288 34.5045 71.2897 34.0403 71.4908 33.5305C71.6002 33.1402 71.8046 33.0593 72.104 33.2878C72.5549 33.4424 72.6887 33.6393 72.5054 33.8784C71.9799 35.1829 71.3523 36.1253 70.6227 36.7056C70.2808 36.9658 70.0095 36.9483 69.8088 36.6529Z" fill="#252D32"/>
<path d="M79.5698 44.3701C79.08 44.328 78.6027 44.1769 78.1377 43.9167C77.7185 43.5969 77.4703 43.1469 77.393 42.5667C77.3509 42.2503 77.3581 41.9004 77.4146 41.5172C77.524 41.1269 77.6299 40.7102 77.7322 40.2672L78.0072 39.9085L77.9861 39.7503C77.6867 39.5218 77.7115 39.3038 78.0604 39.0963L78.6525 38.6954L79.0228 37.841C79.9361 36.2164 81.1913 34.3316 82.7883 32.1866C84.4311 29.9818 86.1673 27.8719 87.9969 25.857C89.8194 23.7893 91.6435 21.936 93.4694 20.2973C95.3411 18.5988 96.9589 17.4171 98.3227 16.7524L98.7984 16.689C99.327 16.6186 99.6193 16.7944 99.6756 17.2163C99.6471 17.8105 99.2962 18.6087 98.6228 19.6108C97.9494 20.613 97.0064 21.8121 95.7937 23.2082C95.1839 23.8798 94.2656 24.8609 93.0389 26.1515C91.8122 27.4421 90.4638 28.8294 88.9939 30.3133C87.5769 31.7903 86.1034 33.2479 84.5737 34.6862C83.0967 36.1175 81.8031 37.3096 80.6928 38.2626L79.3711 39.2438L79.2547 39.5813C79.0008 40.0982 78.7997 40.6081 78.6515 41.1109C78.4963 41.561 78.4468 41.997 78.503 42.4189C78.5873 43.0517 79.01 43.398 79.771 43.4576C80.5321 43.5173 81.4605 43.4205 82.5564 43.1671C83.6982 42.854 84.9052 42.4249 86.1774 41.8797C87.5024 41.3275 88.7711 40.7559 89.9834 40.165C91.1888 39.5214 92.2619 38.8954 93.2029 38.2869C94.144 37.6785 94.8048 37.1879 95.1855 36.8152C95.4675 36.5092 95.7318 36.474 95.9783 36.7096C96.2249 36.9451 96.2072 37.2158 95.9252 37.5218C95.3611 38.1337 94.3848 38.881 92.9962 39.7637C91.6534 40.5867 90.145 41.378 88.4711 42.1377C86.8499 42.8904 85.2113 43.5113 83.555 44.0003C81.9446 44.4295 80.6162 44.5527 79.5698 44.3701ZM94.8955 22.5227C95.604 21.7842 96.1645 21.146 96.577 20.608C97.0353 20.0102 97.4442 19.4458 97.8039 18.9148L98.2163 18.3768L98.4702 17.8599L98.0156 18.0815C96.2781 19.1717 94.5528 20.5555 92.8397 22.2329C91.1195 23.8576 89.4892 25.5508 87.9487 27.3126C86.4082 29.0744 85.0228 30.7886 83.7924 32.4554C82.562 34.1222 81.5642 35.5165 80.7992 36.6382L81.8038 35.6993C82.6709 34.9397 83.7477 33.9374 85.0343 32.6926C86.3139 31.3949 87.5934 30.0973 88.873 28.7997C90.2054 27.4951 91.4127 26.2608 92.4949 25.0968C93.5771 23.9328 94.3773 23.0748 94.8955 22.5227Z" fill="#252D32"/>
<path d="M94.3702 41.5935C93.9969 41.2138 93.8773 40.7198 94.0114 40.1115C94.1456 39.5033 94.3431 38.967 94.604 38.5029C94.1705 38.8827 93.8286 39.1429 93.5784 39.2836C93.3211 39.3715 93.0709 39.5122 92.8277 39.7056C92.5845 39.8991 92.3661 39.8745 92.1724 39.6319C91.9787 39.3893 92.0034 39.1713 92.2466 38.9779C92.8458 38.6297 93.2899 38.329 93.5789 38.0758C93.9208 37.8156 94.2133 37.5888 94.4565 37.3954C94.6927 37.1492 94.9553 36.8995 95.2443 36.6463C95.5334 36.3931 95.9475 36.0696 96.4868 35.6757C96.7828 35.4752 97.0312 35.5227 97.2319 35.818C97.4855 36.1063 97.4907 36.3471 97.2475 36.5405C96.7223 37.0399 96.3521 37.4917 96.137 37.8961C95.9219 38.3005 95.7103 38.7312 95.5023 39.1884C95.1707 39.9303 95.0983 40.3962 95.285 40.586C95.4716 40.7758 95.7764 40.8426 96.1992 40.7863C96.6221 40.7299 97.0908 40.6138 97.6053 40.4379C98.1127 40.2093 98.518 40.0212 98.8211 39.8734C99.8361 39.4162 100.939 38.813 102.13 38.0639C103.322 37.3148 104.509 36.5393 105.694 35.7375C105.831 35.5582 105.956 35.4878 106.069 35.5265C106.175 35.5124 106.314 35.5475 106.486 35.6319C106.687 35.9272 106.617 36.205 106.275 36.4652C105.788 36.8521 104.979 37.4429 103.848 38.2377C102.762 38.9727 101.591 39.6655 100.332 40.3162C99.0743 40.9669 97.8779 41.4751 96.7432 41.841C95.6014 42.1541 94.8104 42.0716 94.3702 41.5935ZM97.101 33.0175C96.9812 32.9261 96.9108 32.8013 96.8897 32.6431C96.9215 32.4778 97.0167 32.3846 97.1752 32.3635C97.4502 32.0048 97.7252 31.6462 98.0002 31.2875C98.321 30.869 98.5819 30.4049 98.783 29.895C98.8924 29.5047 99.0968 29.4238 99.3962 29.6523C99.8471 29.807 99.9809 30.0038 99.7976 30.2429C99.272 31.5475 98.6445 32.4899 97.9149 33.0701C97.573 33.3304 97.3017 33.3128 97.101 33.0175Z" fill="#252D32"/>
<path d="M103.733 41.4735C103.049 41.1888 102.738 40.6667 102.798 39.9073C102.851 39.0951 103.149 38.3039 103.692 37.5338C104.228 36.711 104.937 35.9725 105.818 35.3184C106.692 34.6115 107.605 34.1948 108.556 34.068C109.19 33.9835 109.763 34.0415 110.274 34.2418C110.837 34.4351 111.22 34.6794 111.42 34.9747C111.547 35.1188 111.515 35.2841 111.325 35.4705C111.18 35.5971 111.022 35.6182 110.849 35.5338C110.564 35.4108 110.279 35.2878 109.993 35.1648C109.754 34.982 109.317 34.9328 108.683 35.0173C108.048 35.1018 107.389 35.4043 106.705 35.9248C106.022 36.4453 105.428 37.0343 104.924 37.6919C104.465 38.2896 104.139 38.8698 103.945 39.4324C103.797 39.9352 103.895 40.271 104.241 40.4397C104.73 40.4818 105.351 40.2919 106.101 39.8698C106.845 39.395 107.608 38.864 108.39 38.2767C109.219 37.6296 109.991 36.9632 110.706 36.2775C111.475 35.5847 112.121 34.9886 112.647 34.4893C113.119 33.997 113.456 33.8985 113.656 34.1938C113.91 34.482 113.919 34.7493 113.682 34.9954C113.058 35.5616 112.664 36.2315 112.498 37.005C112.378 37.7188 112.513 38.1301 112.904 38.2391C113.295 38.348 113.892 38.1879 114.696 37.7588C115.492 37.277 116.308 36.7389 117.144 36.1446C117.979 35.5503 118.761 34.963 119.491 34.3827C120.221 33.8024 120.681 33.4191 120.871 33.2327C121.167 33.0323 121.415 33.0797 121.616 33.375C121.87 33.6633 121.875 33.9041 121.632 34.0976C121.29 34.3578 120.758 34.8044 120.035 35.4374C119.305 36.0177 118.497 36.6085 117.608 37.2099C116.773 37.8042 115.901 38.323 114.992 38.7661C114.135 39.2022 113.406 39.3799 112.803 39.2991C112.201 39.2184 111.785 38.9249 111.556 38.4186C111.38 37.9053 111.393 37.3937 111.594 36.8839C111.069 37.3832 110.445 37.9494 109.722 38.5824C108.993 39.1626 108.23 39.6937 107.433 40.1755C106.637 40.6573 105.909 41.0495 105.25 41.352C104.584 41.6017 104.078 41.6422 103.733 41.4735Z" fill="#252D32"/>
<path d="M3.03656 56.1749C3.72402 55.2782 4.61586 54.3006 5.71211 53.2421C6.85419 52.1238 8.07906 51.0214 9.38672 49.9347C10.7402 48.7883 12.1237 47.6647 13.537 46.5639C15.0033 45.4562 16.4008 44.4381 17.7295 43.5096C19.0582 42.5812 20.2953 41.7723 21.4407 41.083C22.5862 40.3937 23.5113 39.8679 24.2161 39.5056L23.1062 39.6535C19.794 39.8263 17.2854 39.57 15.5803 38.8847C13.8752 38.1993 12.7623 37.1131 12.2414 35.6259C11.8226 34.5008 11.9342 33.1173 12.5761 31.4752C13.2181 29.8331 14.223 28.089 15.5909 26.2429C16.9587 24.3968 18.6208 22.5383 20.5772 20.6675C22.5265 18.7439 24.599 16.9381 26.7949 15.2501C29.0435 13.555 31.3168 12.0445 33.6147 10.7186C35.9584 9.3329 38.1857 8.28477 40.2965 7.5742C42.4602 6.85659 44.4353 6.53983 46.2217 6.62392C48.0609 6.70098 49.5669 7.30548 50.7398 8.43745C51.6661 9.33388 51.9509 10.6646 51.5943 12.4297C51.2307 14.1421 50.2469 16.0444 48.6428 18.1367C47.0317 20.1762 44.7829 22.2739 41.8962 24.4296C39.0554 26.5256 35.5981 28.4354 31.5242 30.1589C31.4185 30.173 31.3392 30.1835 31.2864 30.1906C31.2265 30.1449 31.179 29.9902 31.1439 29.7265C31.0241 29.6351 31.0065 29.5032 31.0912 29.3309C31.2287 29.1516 31.3767 29.0514 31.5353 29.0303C35.662 27.2997 39.04 25.4005 41.6694 23.3327C44.3517 21.2578 46.4031 19.2938 47.8239 17.4406C49.2376 15.5347 50.0875 13.8381 50.3735 12.3508C50.7124 10.8565 50.5983 9.79816 50.0313 9.17592C49.1508 8.21971 47.9002 7.71537 46.2794 7.66289C44.7114 7.60337 42.9249 7.92186 40.9198 8.61835C38.9604 9.25507 36.8547 10.2065 34.6027 11.4726C32.3965 12.679 30.2149 14.0699 28.0579 15.6454C25.8938 17.1682 23.8565 18.8351 21.946 20.6461C20.0285 22.4045 18.3823 24.1803 17.0074 25.9737C15.6255 27.7143 14.5871 29.4092 13.8923 31.0583C13.1905 32.6547 13.0031 34.0752 13.3303 35.3198C13.5273 35.9913 13.9288 36.582 14.5346 37.0917C15.1404 37.6014 16.0264 37.9933 17.1926 38.2674C18.3587 38.5414 19.8315 38.6941 21.6108 38.7255C23.3832 38.7041 25.5308 38.4717 28.0538 38.0283C28.371 37.986 28.577 38.1196 28.672 38.429C28.767 38.7384 28.6031 38.9212 28.1803 38.9776C26.3655 39.4877 24.2439 40.5217 21.8156 42.0797C19.3802 43.5849 16.9694 45.2748 14.5833 47.1492C12.2429 48.9638 10.0911 50.7802 8.12773 52.5983C6.15737 54.3636 4.75269 55.7316 3.91369 56.7021C3.16636 57.5531 2.60402 58.3795 2.22667 59.1812C1.78944 59.9372 1.56013 60.6387 1.53872 61.2856C1.51731 61.9326 1.72321 62.4687 2.15642 62.8941C2.58261 63.2667 3.252 63.4459 4.16459 63.4317C5.44716 63.3682 7.09103 62.9882 9.09618 62.2917C11.1472 61.5355 13.1436 60.5718 15.0856 59.4006C16.7913 58.4756 18.7826 57.2711 21.0594 55.787C23.389 54.2958 25.6658 52.8117 27.8897 51.3346C30.1137 49.8575 32.1138 48.5176 33.8902 47.3148C35.6665 46.1121 36.8736 45.2804 37.5116 44.8197C37.6701 44.7985 37.8252 44.751 37.9767 44.6772C38.1811 44.5963 38.3432 44.6015 38.463 44.6929C38.5192 45.1148 38.4486 45.3926 38.2512 45.5262C37.5745 46.0995 36.325 47.0173 34.5028 48.2799C32.6807 49.5424 30.6312 50.9158 28.3544 52.3999C26.0776 53.884 23.7744 55.3716 21.4447 56.8628C19.1081 58.3012 17.0904 59.5093 15.3916 60.487C12.2444 62.3018 9.52203 63.4695 7.2245 63.9903C4.92697 64.511 3.2075 64.5254 2.0661 64.0333C0.871836 63.5483 0.345457 62.6254 0.486963 61.2647C0.575613 59.911 1.42548 58.2144 3.03656 56.1749Z" stroke="#252D32" stroke-width="0.4" mask="url(#path-1-outside-1_1089_2840)"/>
<path d="M38.8983 46.8893L39.2686 46.0348C39.3921 45.75 39.4926 45.4951 39.5702 45.27C39.6937 44.9852 39.7872 44.6776 39.8507 44.347L39.8296 44.1888L39.6922 44.3682L39.2586 44.748C38.8709 45.068 38.4832 45.388 38.0955 45.708C37.7077 46.028 37.3658 46.2883 37.0698 46.4887C36.7737 46.6892 36.4954 46.6189 36.2348 46.2779C35.9953 46.0951 36.0729 45.8701 36.4676 45.6028C36.7637 45.4023 37.1091 45.1685 37.5038 44.9012C37.8986 44.6339 38.237 44.3473 38.519 44.0414L39.2275 43.3029L39.64 42.7649L39.6189 42.6067C39.6895 42.3289 39.8305 42.1759 40.0419 42.1478C40.2463 42.0669 40.4224 42.1776 40.5703 42.4799L40.771 42.7752C41.0279 43.4925 41.0206 44.2449 40.7489 45.0325C41.1825 44.6527 41.787 44.1428 42.5624 43.5028C43.3308 42.81 44.1327 42.1664 44.968 41.5721C45.8561 40.9707 46.7055 40.4819 47.5161 40.1055C48.3795 39.7221 49.1195 39.6236 49.736 39.8098C50.0742 39.9258 50.2679 40.1683 50.3171 40.5375C50.3662 40.9067 50.3396 41.3128 50.2373 41.7558C50.1807 42.1391 50.0714 42.5294 49.9091 42.9267C49.7469 43.324 49.6534 43.6317 49.6286 43.8497L49.6497 44.0079C50.0832 43.6281 50.6419 43.178 51.3257 42.6575C52.0024 42.0843 52.7161 41.5867 53.4668 41.1646C54.2105 40.6898 54.9417 40.3241 55.6606 40.0673C56.4324 39.8034 57.0966 39.7418 57.6532 39.8824C58.15 39.9772 58.3507 40.2725 58.2554 40.7683C58.2694 40.8738 58.2835 40.9792 58.2975 41.0847C58.3116 41.1902 58.2728 41.3027 58.1811 41.4223C57.9801 41.9321 57.6539 42.5123 57.2026 43.1629C56.7514 43.8134 56.3988 44.3971 56.1449 44.914C55.9438 45.4239 55.9895 45.7667 56.2818 45.9424C56.6201 46.0584 57.4816 45.8631 58.8666 45.3566C62.5139 44.0656 65.5237 42.4302 67.8958 40.4503C67.9804 40.278 68.1055 40.2077 68.2711 40.2393C68.4367 40.2709 68.5301 40.3658 68.5511 40.524C68.7906 40.7068 68.8187 40.9178 68.6354 41.1569C67.2291 42.3104 65.673 43.3496 63.9673 44.2746C62.3144 45.1925 60.6633 45.9224 59.0141 46.4641C57.5693 46.9249 56.5192 47.1185 55.8639 47.0447C55.2543 46.9112 54.8986 46.6634 54.7965 46.3013C54.6875 45.8864 54.7564 45.3942 55.0033 44.8245C55.296 44.1951 55.5922 43.5921 55.892 43.0154C56.2445 42.4317 56.5319 41.964 56.754 41.6124C57.022 41.201 57.0996 40.9759 56.9869 40.9373C56.5958 40.8283 55.995 40.962 55.1844 41.3384C54.4267 41.7077 53.6073 42.2194 52.7262 42.8735C51.838 43.4749 50.9604 44.1554 50.0933 44.915C49.2262 45.6746 48.5635 46.3533 48.1052 46.9511C47.9677 47.1304 47.8337 47.3361 47.7032 47.5682C47.6186 47.7405 47.5304 47.8864 47.4388 48.006L47.2802 48.0271C47.0159 48.0623 46.794 48.0114 46.6143 47.8743C46.4277 47.6844 46.4031 47.4998 46.5406 47.3205C47.1611 46.3254 47.6566 45.4006 48.0269 44.5461C48.443 43.6319 48.7217 42.897 48.8629 42.3415C49.0499 41.7261 49.0994 41.2901 49.0114 41.0335C48.9693 40.7171 48.7702 40.6362 48.4143 40.791C47.8469 40.9739 47.1456 41.3625 46.3103 41.9569C45.4679 42.4985 44.6132 43.1491 43.7461 43.9087C42.872 44.6155 42.0278 45.3452 41.2136 46.0978C40.3993 46.8503 39.7366 47.529 39.2255 48.1339C39.088 48.3132 38.954 48.5189 38.8236 48.751C38.7389 48.9233 38.6508 49.0692 38.5591 49.1888L38.4005 49.2099C38.1363 49.2451 37.9143 49.1942 37.7347 49.0571C37.548 48.8672 37.5234 48.6826 37.6609 48.5033L38.8983 46.8893Z" stroke="#252D32" stroke-width="0.4" mask="url(#path-1-outside-1_1089_2840)"/>
<path d="M67.078 45.2289C66.7047 44.8492 66.5851 44.3553 66.7192 43.747C66.8534 43.1387 67.0509 42.6025 67.3119 42.1383C66.8783 42.5181 66.5364 42.7784 66.2862 42.919C66.0289 43.007 65.7787 43.1477 65.5355 43.3411C65.2923 43.5345 65.0739 43.5099 64.8802 43.2673C64.6865 43.0248 64.7112 42.8068 64.9544 42.6134C65.5536 42.2652 65.9977 41.9645 66.2867 41.7113C66.6286 41.451 66.9211 41.2242 67.1643 41.0308C67.4005 40.7846 67.6631 40.535 67.9521 40.2818C68.2412 40.0286 68.6553 39.705 69.1946 39.3111C69.4906 39.1107 69.739 39.1581 69.9397 39.4534C70.1933 39.7417 70.1985 39.9825 69.9553 40.176C69.4301 40.6753 69.0599 41.1272 68.8448 41.5316C68.6297 41.9359 68.4181 42.3667 68.2101 42.8238C67.8785 43.5657 67.8061 44.0316 67.9928 44.2214C68.1794 44.4113 68.4842 44.478 68.9071 44.4217C69.3299 44.3654 69.7986 44.2493 70.3131 44.0734C70.8205 43.8448 71.2258 43.6566 71.5289 43.5089C72.5439 43.0516 73.647 42.4485 74.8382 41.6994C76.0295 40.9503 77.2172 40.1748 78.4014 39.3729C78.5389 39.1936 78.664 39.1233 78.7768 39.1619C78.8825 39.1478 79.0216 39.183 79.1943 39.2673C79.395 39.5626 79.3244 39.8404 78.9825 40.1007C78.4961 40.4875 77.6872 41.0783 76.5558 41.8731C75.4703 42.6081 74.2985 43.301 73.0403 43.9516C71.7821 44.6023 70.5857 45.1106 69.451 45.4764C68.3092 45.7895 67.5183 45.707 67.078 45.2289ZM69.8088 36.6529C69.689 36.5616 69.6186 36.4367 69.5975 36.2785C69.6293 36.1133 69.7245 36.0201 69.883 35.999C70.158 35.6403 70.433 35.2816 70.708 34.9229C71.0288 34.5045 71.2897 34.0403 71.4908 33.5305C71.6002 33.1402 71.8046 33.0593 72.104 33.2878C72.5549 33.4424 72.6887 33.6393 72.5054 33.8784C71.9799 35.1829 71.3523 36.1253 70.6227 36.7056C70.2808 36.9658 70.0095 36.9483 69.8088 36.6529Z" stroke="#252D32" stroke-width="0.4" mask="url(#path-1-outside-1_1089_2840)"/>
<path d="M79.5698 44.3701C79.08 44.328 78.6027 44.1769 78.1377 43.9167C77.7185 43.5969 77.4703 43.1469 77.393 42.5667C77.3509 42.2503 77.3581 41.9004 77.4146 41.5172C77.524 41.1269 77.6299 40.7102 77.7322 40.2672L78.0072 39.9085L77.9861 39.7503C77.6867 39.5218 77.7115 39.3038 78.0604 39.0963L78.6525 38.6954L79.0228 37.841C79.9361 36.2164 81.1913 34.3316 82.7883 32.1866C84.4311 29.9818 86.1673 27.8719 87.9969 25.857C89.8194 23.7893 91.6435 21.936 93.4694 20.2973C95.3411 18.5988 96.9589 17.4171 98.3227 16.7524L98.7984 16.689C99.327 16.6186 99.6193 16.7944 99.6756 17.2163C99.6471 17.8105 99.2962 18.6087 98.6228 19.6108C97.9494 20.613 97.0064 21.8121 95.7937 23.2082C95.1839 23.8798 94.2656 24.8609 93.0389 26.1515C91.8122 27.4421 90.4638 28.8294 88.9939 30.3133C87.5769 31.7903 86.1034 33.2479 84.5737 34.6862C83.0967 36.1175 81.8031 37.3096 80.6928 38.2626L79.3711 39.2438L79.2547 39.5813C79.0008 40.0982 78.7997 40.6081 78.6515 41.1109C78.4963 41.561 78.4468 41.997 78.503 42.4189C78.5873 43.0517 79.01 43.398 79.771 43.4576C80.5321 43.5173 81.4605 43.4205 82.5564 43.1671C83.6982 42.854 84.9052 42.4249 86.1774 41.8797C87.5024 41.3275 88.7711 40.7559 89.9834 40.165C91.1888 39.5214 92.2619 38.8954 93.2029 38.2869C94.144 37.6785 94.8048 37.1879 95.1855 36.8152C95.4675 36.5092 95.7318 36.474 95.9783 36.7096C96.2249 36.9451 96.2072 37.2158 95.9252 37.5218C95.3611 38.1337 94.3848 38.881 92.9962 39.7637C91.6534 40.5867 90.145 41.378 88.4711 42.1377C86.8499 42.8904 85.2113 43.5113 83.555 44.0003C81.9446 44.4295 80.6162 44.5527 79.5698 44.3701ZM94.8955 22.5227C95.604 21.7842 96.1645 21.146 96.577 20.608C97.0353 20.0102 97.4442 19.4458 97.8039 18.9148L98.2163 18.3768L98.4702 17.8599L98.0156 18.0815C96.2781 19.1717 94.5528 20.5555 92.8397 22.2329C91.1195 23.8576 89.4892 25.5508 87.9487 27.3126C86.4082 29.0744 85.0228 30.7886 83.7924 32.4554C82.562 34.1222 81.5642 35.5165 80.7992 36.6382L81.8038 35.6993C82.6709 34.9397 83.7477 33.9374 85.0343 32.6926C86.3139 31.3949 87.5934 30.0973 88.873 28.7997C90.2054 27.4951 91.4127 26.2608 92.4949 25.0968C93.5771 23.9328 94.3773 23.0748 94.8955 22.5227Z" stroke="#252D32" stroke-width="0.4" mask="url(#path-1-outside-1_1089_2840)"/>
<path d="M94.3702 41.5935C93.9969 41.2138 93.8773 40.7198 94.0114 40.1115C94.1456 39.5033 94.3431 38.967 94.604 38.5029C94.1705 38.8827 93.8286 39.1429 93.5784 39.2836C93.3211 39.3715 93.0709 39.5122 92.8277 39.7056C92.5845 39.8991 92.3661 39.8745 92.1724 39.6319C91.9787 39.3893 92.0034 39.1713 92.2466 38.9779C92.8458 38.6297 93.2899 38.329 93.5789 38.0758C93.9208 37.8156 94.2133 37.5888 94.4565 37.3954C94.6927 37.1492 94.9553 36.8995 95.2443 36.6463C95.5334 36.3931 95.9475 36.0696 96.4868 35.6757C96.7828 35.4752 97.0312 35.5227 97.2319 35.818C97.4855 36.1063 97.4907 36.3471 97.2475 36.5405C96.7223 37.0399 96.3521 37.4917 96.137 37.8961C95.9219 38.3005 95.7103 38.7312 95.5023 39.1884C95.1707 39.9303 95.0983 40.3962 95.285 40.586C95.4716 40.7758 95.7764 40.8426 96.1992 40.7863C96.6221 40.7299 97.0908 40.6138 97.6053 40.4379C98.1127 40.2093 98.518 40.0212 98.8211 39.8734C99.8361 39.4162 100.939 38.813 102.13 38.0639C103.322 37.3148 104.509 36.5393 105.694 35.7375C105.831 35.5582 105.956 35.4878 106.069 35.5265C106.175 35.5124 106.314 35.5475 106.486 35.6319C106.687 35.9272 106.617 36.205 106.275 36.4652C105.788 36.8521 104.979 37.4429 103.848 38.2377C102.762 38.9727 101.591 39.6655 100.332 40.3162C99.0743 40.9669 97.8779 41.4751 96.7432 41.841C95.6014 42.1541 94.8104 42.0716 94.3702 41.5935ZM97.101 33.0175C96.9812 32.9261 96.9108 32.8013 96.8897 32.6431C96.9215 32.4778 97.0167 32.3846 97.1752 32.3635C97.4502 32.0048 97.7252 31.6462 98.0002 31.2875C98.321 30.869 98.5819 30.4049 98.783 29.895C98.8924 29.5047 99.0968 29.4238 99.3962 29.6523C99.8471 29.807 99.9809 30.0038 99.7976 30.2429C99.272 31.5475 98.6445 32.4899 97.9149 33.0701C97.573 33.3304 97.3017 33.3128 97.101 33.0175Z" stroke="#252D32" stroke-width="0.4" mask="url(#path-1-outside-1_1089_2840)"/>
<path d="M103.733 41.4735C103.049 41.1888 102.738 40.6667 102.798 39.9073C102.851 39.0951 103.149 38.3039 103.692 37.5338C104.228 36.711 104.937 35.9725 105.818 35.3184C106.692 34.6115 107.605 34.1948 108.556 34.068C109.19 33.9835 109.763 34.0415 110.274 34.2418C110.837 34.4351 111.22 34.6794 111.42 34.9747C111.547 35.1188 111.515 35.2841 111.325 35.4705C111.18 35.5971 111.022 35.6182 110.849 35.5338C110.564 35.4108 110.279 35.2878 109.993 35.1648C109.754 34.982 109.317 34.9328 108.683 35.0173C108.048 35.1018 107.389 35.4043 106.705 35.9248C106.022 36.4453 105.428 37.0343 104.924 37.6919C104.465 38.2896 104.139 38.8698 103.945 39.4324C103.797 39.9352 103.895 40.271 104.241 40.4397C104.73 40.4818 105.351 40.2919 106.101 39.8698C106.845 39.395 107.608 38.864 108.39 38.2767C109.219 37.6296 109.991 36.9632 110.706 36.2775C111.475 35.5847 112.121 34.9886 112.647 34.4893C113.119 33.997 113.456 33.8985 113.656 34.1938C113.91 34.482 113.919 34.7493 113.682 34.9954C113.058 35.5616 112.664 36.2315 112.498 37.005C112.378 37.7188 112.513 38.1301 112.904 38.2391C113.295 38.348 113.892 38.1879 114.696 37.7588C115.492 37.277 116.308 36.7389 117.144 36.1446C117.979 35.5503 118.761 34.963 119.491 34.3827C120.221 33.8024 120.681 33.4191 120.871 33.2327C121.167 33.0323 121.415 33.0797 121.616 33.375C121.87 33.6633 121.875 33.9041 121.632 34.0976C121.29 34.3578 120.758 34.8044 120.035 35.4374C119.305 36.0177 118.497 36.6085 117.608 37.2099C116.773 37.8042 115.901 38.323 114.992 38.7661C114.135 39.2022 113.406 39.3799 112.803 39.2991C112.201 39.2184 111.785 38.9249 111.556 38.4186C111.38 37.9053 111.393 37.3937 111.594 36.8839C111.069 37.3832 110.445 37.9494 109.722 38.5824C108.993 39.1626 108.23 39.6937 107.433 40.1755C106.637 40.6573 105.909 41.0495 105.25 41.352C104.584 41.6017 104.078 41.6422 103.733 41.4735Z" stroke="#252D32" stroke-width="0.4" mask="url(#path-1-outside-1_1089_2840)"/>
<path d="M139.134 14.7819C137.692 13.5819 135.568 13.8117 134.231 15.1393L133.732 15.6499L133.208 15.1393C131.897 13.8117 129.747 13.5819 128.305 14.7819C126.653 16.1606 126.574 18.6116 128.042 20.0924L133.129 25.1988C133.444 25.5307 133.995 25.5307 134.309 25.1988L139.396 20.0924C140.864 18.6116 140.786 16.1606 139.134 14.7819Z" fill="#E44C4A"/>
</svg>
