<svg width="214" height="74" viewBox="0 0 214 74" fill="none" xmlns="http://www.w3.org/2000/svg">
<mask id="path-1-outside-1_1089_2750" maskUnits="userSpaceOnUse" x="53.4219" y="0" width="104" height="38" fill="black">
<rect fill="white" x="53.4219" width="104" height="38"/>
<path d="M57.1516 31.3744C57.8121 30.8187 58.6486 30.2259 59.6613 29.5961C60.718 28.9292 61.8407 28.2809 63.0295 27.6511C64.2623 26.9842 65.5171 26.3358 66.7939 25.706C68.1148 25.0762 69.3696 24.5019 70.5583 23.9833C71.7471 23.4646 72.8478 23.02 73.8605 22.6495C74.8731 22.279 75.6877 22.0012 76.3041 21.8159H75.3795C72.6497 21.6307 70.6244 21.2232 69.3035 20.5933C67.9827 19.9635 67.1902 19.1114 66.926 18.037C66.7058 17.2219 66.948 16.2772 67.6525 15.2028C68.3569 14.1284 69.3696 13.0169 70.6904 11.8684C72.0113 10.7199 73.5743 9.58995 75.3795 8.47849C77.1846 7.32999 79.0779 6.27411 81.0592 5.31085C83.0845 4.34759 85.1098 3.514 87.1351 2.81008C89.2044 2.06911 91.1417 1.55043 92.9469 1.25404C94.7961 0.957659 96.4471 0.920611 97.9001 1.1429C99.3971 1.36519 100.564 1.92092 101.4 2.81008C102.061 3.514 102.149 4.45874 101.665 5.64428C101.18 6.79279 100.168 8.01539 98.6266 9.31208C97.0856 10.5717 95.0162 11.8129 92.4185 13.0354C89.8649 14.221 86.8269 15.2213 83.3046 16.0364C83.2166 16.0364 83.1505 16.0364 83.1065 16.0364C83.0625 15.9993 83.0404 15.8882 83.0404 15.7029C82.9524 15.6288 82.9524 15.5362 83.0404 15.4251C83.1725 15.3139 83.3046 15.2584 83.4367 15.2584C87.003 14.4433 89.9749 13.443 92.3525 12.2574C94.7741 11.0719 96.6673 9.90486 98.0322 8.75636C99.3971 7.57081 100.278 6.47788 100.674 5.47757C101.114 4.47726 101.136 3.73629 100.74 3.25466C100.124 2.51369 99.1549 2.05059 97.834 1.86535C96.5572 1.6801 95.0602 1.73568 93.3431 2.03206C91.67 2.2914 89.8429 2.75451 87.8616 3.42138C85.9243 4.0512 83.9871 4.8107 82.0498 5.69986C80.1125 6.55197 78.2633 7.51523 76.5022 8.58964C74.7411 9.62699 73.2001 10.7014 71.8792 11.8129C70.5583 12.8873 69.5237 13.9617 68.7752 15.0361C68.0267 16.0734 67.7185 17.0367 67.8506 17.9258C67.9386 18.4075 68.2028 18.8521 68.6431 19.2596C69.0834 19.6671 69.7658 20.0191 70.6904 20.3155C71.615 20.6119 72.8038 20.8527 74.2567 21.0379C75.7097 21.1861 77.4928 21.2232 79.6062 21.1491C79.8704 21.1491 80.0245 21.2602 80.0685 21.4825C80.1125 21.7048 79.9584 21.8159 79.6062 21.8159C78.0652 22.0012 76.216 22.5199 74.0586 23.372C71.9012 24.187 69.7438 25.1318 67.5864 26.2062C65.473 27.2435 63.5138 28.2994 61.7086 29.3738C59.9034 30.4112 58.6046 31.2262 57.8121 31.819C57.1076 32.3377 56.5573 32.8564 56.161 33.375C55.7207 33.8567 55.4565 34.3198 55.3685 34.7644C55.2804 35.2089 55.3905 35.5979 55.6987 35.9314C56.0069 36.2278 56.5352 36.413 57.2837 36.4871C58.3404 36.5612 59.7273 36.4501 61.4444 36.1537C63.2056 35.8202 64.9447 35.3386 66.6618 34.7088C68.1588 34.2272 69.9199 33.5788 71.9452 32.7637C74.0146 31.9487 76.0399 31.1336 78.0212 30.3185C80.0025 29.5035 81.7856 28.7625 83.3707 28.0956C84.9557 27.4288 86.0344 26.9657 86.6068 26.7063C86.7388 26.7063 86.8709 26.6878 87.003 26.6508C87.1791 26.6137 87.3112 26.6322 87.3993 26.7063C87.3993 27.0027 87.3112 27.188 87.1351 27.2621C86.5187 27.5955 85.396 28.1142 83.7669 28.8181C82.1379 29.522 80.3107 30.2815 78.2854 31.0966C76.26 31.9116 74.2127 32.7267 72.1434 33.5418C70.074 34.3198 68.2909 34.9681 66.7939 35.4868C64.0201 36.4501 61.6646 37.0058 59.7273 37.154C57.7901 37.3022 56.3811 37.154 55.5006 36.7094C54.576 36.2648 54.2458 35.5794 54.5099 34.6532C54.7301 33.727 55.6106 32.6341 57.1516 31.3744Z"/>
<path d="M87.5161 28.2624L87.9124 27.7066C88.0445 27.5214 88.1545 27.3547 88.2426 27.2065C88.3747 27.0212 88.4848 26.8175 88.5728 26.5952V26.484L88.4407 26.5952L88.0445 26.8175C87.6922 27.0027 87.34 27.188 86.9878 27.3732C86.6356 27.5584 86.3274 27.7066 86.0632 27.8178C85.799 27.9289 85.5789 27.8548 85.4028 27.5955C85.2266 27.4473 85.3147 27.2991 85.6669 27.1509C85.9311 27.0398 86.2393 26.9101 86.5915 26.7619C86.9438 26.6137 87.252 26.447 87.5161 26.2617L88.1766 25.8172L88.5728 25.4837V25.3726C88.6609 25.1873 88.793 25.0947 88.9691 25.0947C89.1452 25.0577 89.2773 25.1503 89.3653 25.3726L89.4974 25.5949C89.6295 26.1136 89.5414 26.6322 89.2332 27.1509C89.6295 26.9286 90.1799 26.6322 90.8843 26.2617C91.5888 25.8542 92.3152 25.4837 93.0637 25.1503C93.8562 24.8169 94.6047 24.5575 95.3092 24.3723C96.0577 24.187 96.6741 24.187 97.1584 24.3723C97.4226 24.4834 97.5546 24.6687 97.5546 24.928C97.5546 25.1873 97.4886 25.4652 97.3565 25.7616C97.2685 26.0209 97.1364 26.2803 96.9603 26.5396C96.7841 26.7989 96.6741 27.0027 96.63 27.1509V27.2621C97.0263 27.0398 97.5326 26.7804 98.149 26.484C98.7654 26.1506 99.4038 25.8727 100.064 25.6504C100.725 25.3911 101.363 25.2059 101.98 25.0947C102.64 24.9836 103.19 25.0021 103.631 25.1503C104.027 25.2614 104.159 25.4837 104.027 25.8172C104.027 25.8913 104.027 25.9654 104.027 26.0395C104.027 26.1136 103.983 26.1876 103.895 26.2617C103.675 26.5952 103.344 26.9657 102.904 27.3732C102.464 27.7807 102.112 28.1512 101.847 28.4847C101.627 28.8181 101.627 29.0589 101.847 29.2071C102.112 29.3182 102.838 29.2627 104.027 29.0404C107.153 28.4847 109.795 27.6325 111.952 26.484C112.04 26.3729 112.15 26.3358 112.282 26.3729C112.414 26.4099 112.48 26.484 112.48 26.5952C112.656 26.7434 112.656 26.8916 112.48 27.0398C111.203 27.7066 109.817 28.2809 108.32 28.7625C106.867 29.2441 105.436 29.5961 104.027 29.8184C102.794 30.0036 101.913 30.0407 101.385 29.9295C100.901 29.7813 100.637 29.5776 100.593 29.3182C100.549 29.0219 100.659 28.6884 100.923 28.3179C101.231 27.9104 101.539 27.5214 101.847 27.1509C102.2 26.7804 102.486 26.484 102.706 26.2617C102.97 26.0024 103.058 25.8542 102.97 25.8172C102.662 25.706 102.156 25.7431 101.451 25.9283C100.791 26.1135 100.064 26.3914 99.2718 26.7619C98.4792 27.0953 97.6867 27.4843 96.8942 27.9289C96.1017 28.3735 95.4853 28.781 95.045 29.1515C94.9129 29.2627 94.7808 29.3923 94.6488 29.5405C94.5607 29.6517 94.4726 29.7443 94.3846 29.8184H94.2525C94.0324 29.8184 93.8562 29.7628 93.7242 29.6517C93.5921 29.5035 93.5921 29.3738 93.7242 29.2627C94.3406 28.6328 94.8469 28.0401 95.2431 27.4843C95.6834 26.8916 95.9916 26.4099 96.1677 26.0395C96.3879 25.6319 96.4759 25.3355 96.4319 25.1503C96.4319 24.928 96.2778 24.8539 95.9696 24.928C95.4853 25.0021 94.8689 25.2059 94.1204 25.5393C93.3719 25.8357 92.6014 26.2062 91.8089 26.6508C91.0164 27.0583 90.2459 27.4843 89.4974 27.9289C88.7489 28.3735 88.1325 28.781 87.6482 29.1515C87.5161 29.2627 87.384 29.3923 87.252 29.5405C87.1639 29.6517 87.0758 29.7443 86.9878 29.8184H86.8557C86.6356 29.8184 86.4594 29.7628 86.3274 29.6517C86.1953 29.5035 86.1953 29.3738 86.3274 29.2627L87.5161 28.2624Z"/>
<path d="M110.762 29.7072C110.497 29.4109 110.453 29.0589 110.63 28.6514C110.806 28.2438 111.026 27.8919 111.29 27.5955C110.894 27.8178 110.586 27.966 110.365 28.0401C110.145 28.0771 109.925 28.1512 109.705 28.2624C109.485 28.3735 109.309 28.3365 109.177 28.1512C109.045 27.966 109.089 27.8178 109.309 27.7066C109.837 27.5214 110.233 27.3547 110.497 27.2065C110.806 27.0583 111.07 26.9286 111.29 26.8175C111.51 26.6693 111.752 26.5211 112.016 26.3729C112.281 26.2247 112.655 26.0395 113.139 25.8172C113.403 25.706 113.602 25.7616 113.734 25.9839C113.91 26.2062 113.888 26.3729 113.668 26.484C113.183 26.7804 112.831 27.0583 112.611 27.3176C112.391 27.577 112.171 27.8548 111.95 28.1512C111.598 28.6328 111.488 28.9478 111.62 29.096C111.752 29.2441 111.994 29.3182 112.347 29.3182C112.699 29.3182 113.095 29.2812 113.535 29.2071C113.976 29.096 114.328 29.0033 114.592 28.9292C115.473 28.7069 116.441 28.392 117.498 27.9845C118.555 27.577 119.611 27.1509 120.668 26.7063C120.8 26.5952 120.91 26.5581 120.998 26.5952C121.086 26.5952 121.196 26.6322 121.329 26.7063C121.461 26.9286 121.373 27.1139 121.064 27.2621C120.624 27.4843 119.898 27.8178 118.885 28.2624C117.916 28.6699 116.882 29.0404 115.781 29.3738C114.68 29.7072 113.646 29.9481 112.677 30.0963C111.708 30.2074 111.07 30.0777 110.762 29.7072ZM113.932 24.0388C113.844 23.9647 113.8 23.8721 113.8 23.761C113.844 23.6498 113.932 23.5943 114.064 23.5943C114.328 23.372 114.592 23.1497 114.856 22.9274C115.165 22.668 115.429 22.3717 115.649 22.0382C115.781 21.7789 115.957 21.7418 116.177 21.9271C116.529 22.0753 116.617 22.2235 116.441 22.3717C115.869 23.2238 115.253 23.8165 114.592 24.15C114.284 24.2982 114.064 24.2611 113.932 24.0388Z"/>
<path d="M121.08 30.263C120.683 30.1889 120.309 30.0407 119.957 29.8184C119.649 29.5591 119.495 29.2256 119.495 28.8181C119.495 28.5958 119.539 28.355 119.627 28.0956C119.759 27.8363 119.891 27.5584 120.023 27.2621L120.287 27.0398V26.9286C120.067 26.7434 120.111 26.5952 120.419 26.484L120.947 26.2617L121.344 25.706C122.268 24.6687 123.501 23.4831 125.042 22.1494C126.627 20.7786 128.278 19.4819 129.995 18.2593C131.712 16.9996 133.408 15.8882 135.081 14.9249C136.798 13.9246 138.251 13.2577 139.439 12.9243H139.836C140.276 12.9243 140.496 13.0725 140.496 13.3689C140.408 13.7764 140.034 14.2951 139.373 14.9249C138.713 15.5547 137.81 16.2957 136.666 17.1478C136.093 17.5554 135.235 18.1481 134.09 18.9262C132.945 19.7042 131.69 20.5378 130.326 21.4269C129.005 22.3161 127.64 23.1867 126.231 24.0388C124.866 24.891 123.677 25.5949 122.665 26.1506L121.476 26.7063L121.344 26.9286C121.08 27.2621 120.859 27.5955 120.683 27.9289C120.507 28.2253 120.419 28.5217 120.419 28.8181C120.419 29.2627 120.727 29.5405 121.344 29.6517C121.96 29.7628 122.731 29.7813 123.655 29.7072C124.624 29.5961 125.659 29.4109 126.759 29.1515C127.904 28.8922 129.005 28.6143 130.061 28.3179C131.118 27.9845 132.065 27.6511 132.901 27.3176C133.738 26.9842 134.332 26.7063 134.684 26.484C134.949 26.2988 135.169 26.2988 135.345 26.484C135.521 26.6693 135.477 26.8545 135.213 27.0398C134.684 27.4102 133.804 27.8363 132.571 28.3179C131.382 28.7625 130.061 29.17 128.608 29.5405C127.2 29.911 125.791 30.1889 124.382 30.3741C123.017 30.5223 121.916 30.4853 121.08 30.263ZM136.005 16.5921C136.666 16.1475 137.194 15.7585 137.59 15.4251C138.031 15.0546 138.427 14.7026 138.779 14.3692L139.175 14.0358L139.439 13.7023L139.043 13.8135C137.502 14.4062 135.939 15.2028 134.354 16.2031C132.769 17.1664 131.25 18.1852 129.797 19.2596C128.344 20.334 127.023 21.3899 125.835 22.4272C124.646 23.4646 123.677 24.3352 122.929 25.0391L123.853 24.4834C124.646 24.0388 125.637 23.4461 126.825 22.7051C128.014 21.9271 129.203 21.1491 130.392 20.371C131.624 19.593 132.747 18.8521 133.76 18.1481C134.772 17.4442 135.521 16.9255 136.005 16.5921Z"/>
<path d="M133.496 29.7072C133.232 29.4109 133.188 29.0589 133.364 28.6514C133.54 28.2438 133.76 27.8919 134.024 27.5955C133.628 27.8178 133.32 27.966 133.1 28.0401C132.88 28.0771 132.66 28.1512 132.439 28.2624C132.219 28.3735 132.043 28.3365 131.911 28.1512C131.779 27.966 131.823 27.8178 132.043 27.7066C132.572 27.5214 132.968 27.3547 133.232 27.2065C133.54 27.0583 133.804 26.9286 134.024 26.8175C134.245 26.6693 134.487 26.5211 134.751 26.3729C135.015 26.2247 135.389 26.0395 135.874 25.8172C136.138 25.706 136.336 25.7616 136.468 25.9839C136.644 26.2062 136.622 26.3729 136.402 26.484C135.918 26.7804 135.565 27.0583 135.345 27.3176C135.125 27.577 134.905 27.8548 134.685 28.1512C134.333 28.6328 134.223 28.9478 134.355 29.096C134.487 29.2441 134.729 29.3182 135.081 29.3182C135.433 29.3182 135.83 29.2812 136.27 29.2071C136.71 29.096 137.062 29.0033 137.327 28.9292C138.207 28.7069 139.176 28.392 140.232 27.9845C141.289 27.577 142.346 27.1509 143.403 26.7063C143.535 26.5952 143.645 26.5581 143.733 26.5952C143.821 26.5952 143.931 26.6322 144.063 26.7063C144.195 26.9286 144.107 27.1139 143.799 27.2621C143.359 27.4843 142.632 27.8178 141.619 28.2624C140.651 28.6699 139.616 29.0404 138.515 29.3738C137.415 29.7072 136.38 29.9481 135.411 30.0963C134.443 30.2074 133.804 30.0777 133.496 29.7072ZM136.666 24.0388C136.578 23.9647 136.534 23.8721 136.534 23.761C136.578 23.6498 136.666 23.5943 136.798 23.5943C137.062 23.372 137.327 23.1497 137.591 22.9274C137.899 22.668 138.163 22.3717 138.383 22.0382C138.515 21.7789 138.692 21.7418 138.912 21.9271C139.264 22.0753 139.352 22.2235 139.176 22.3717C138.603 23.2238 137.987 23.8165 137.327 24.15C137.018 24.2982 136.798 24.2611 136.666 24.0388Z"/>
<path d="M141.172 30.4853C140.644 30.2259 140.446 29.8369 140.578 29.3182C140.71 28.7625 141.04 28.2438 141.569 27.7622C142.097 27.2435 142.757 26.7989 143.55 26.4285C144.342 26.0209 145.135 25.8172 145.927 25.8172C146.456 25.8172 146.918 25.9098 147.314 26.095C147.755 26.2803 148.041 26.484 148.173 26.7063C148.261 26.8175 148.217 26.9286 148.041 27.0398C147.909 27.1139 147.777 27.1139 147.645 27.0398C147.424 26.9286 147.204 26.8175 146.984 26.7063C146.808 26.5581 146.456 26.484 145.927 26.484C145.399 26.484 144.827 26.6322 144.21 26.9286C143.594 27.225 143.044 27.577 142.559 27.9845C142.119 28.355 141.789 28.7255 141.569 29.096C141.392 29.4294 141.437 29.6702 141.701 29.8184C142.097 29.8925 142.625 29.8184 143.286 29.5961C143.946 29.3368 144.629 29.0404 145.333 28.7069C146.082 28.3365 146.786 27.9474 147.446 27.5399C148.151 27.1324 148.745 26.7804 149.23 26.484C149.67 26.1876 149.956 26.1506 150.088 26.3729C150.264 26.5952 150.242 26.7804 150.022 26.9286C149.45 27.2621 149.053 27.6881 148.833 28.2068C148.657 28.6884 148.723 28.9848 149.031 29.096C149.34 29.2071 149.846 29.1515 150.55 28.9292C151.255 28.6699 151.981 28.3735 152.73 28.0401C153.478 27.7066 154.183 27.3732 154.843 27.0398C155.504 26.7063 155.922 26.484 156.098 26.3729C156.362 26.2617 156.56 26.3173 156.692 26.5396C156.869 26.7619 156.846 26.9286 156.626 27.0398C156.318 27.188 155.834 27.4473 155.173 27.8178C154.513 28.1512 153.787 28.4847 152.994 28.8181C152.246 29.1515 151.475 29.4294 150.682 29.6517C149.934 29.874 149.318 29.9295 148.833 29.8184C148.349 29.7072 148.041 29.4664 147.909 29.096C147.821 28.7255 147.887 28.3735 148.107 28.0401C147.623 28.3365 147.05 28.6699 146.39 29.0404C145.729 29.3738 145.047 29.6702 144.342 29.9295C143.638 30.1889 143 30.3926 142.427 30.5408C141.855 30.652 141.437 30.6335 141.172 30.4853Z"/>
</mask>
<path d="M57.1516 31.3744C57.8121 30.8187 58.6486 30.2259 59.6613 29.5961C60.718 28.9292 61.8407 28.2809 63.0295 27.6511C64.2623 26.9842 65.5171 26.3358 66.7939 25.706C68.1148 25.0762 69.3696 24.5019 70.5583 23.9833C71.7471 23.4646 72.8478 23.02 73.8605 22.6495C74.8731 22.279 75.6877 22.0012 76.3041 21.8159H75.3795C72.6497 21.6307 70.6244 21.2232 69.3035 20.5933C67.9827 19.9635 67.1902 19.1114 66.926 18.037C66.7058 17.2219 66.948 16.2772 67.6525 15.2028C68.3569 14.1284 69.3696 13.0169 70.6904 11.8684C72.0113 10.7199 73.5743 9.58995 75.3795 8.47849C77.1846 7.32999 79.0779 6.27411 81.0592 5.31085C83.0845 4.34759 85.1098 3.514 87.1351 2.81008C89.2044 2.06911 91.1417 1.55043 92.9469 1.25404C94.7961 0.957659 96.4471 0.920611 97.9001 1.1429C99.3971 1.36519 100.564 1.92092 101.4 2.81008C102.061 3.514 102.149 4.45874 101.665 5.64428C101.18 6.79279 100.168 8.01539 98.6266 9.31208C97.0856 10.5717 95.0162 11.8129 92.4185 13.0354C89.8649 14.221 86.8269 15.2213 83.3046 16.0364C83.2166 16.0364 83.1505 16.0364 83.1065 16.0364C83.0625 15.9993 83.0404 15.8882 83.0404 15.7029C82.9524 15.6288 82.9524 15.5362 83.0404 15.4251C83.1725 15.3139 83.3046 15.2584 83.4367 15.2584C87.003 14.4433 89.9749 13.443 92.3525 12.2574C94.7741 11.0719 96.6673 9.90486 98.0322 8.75636C99.3971 7.57081 100.278 6.47788 100.674 5.47757C101.114 4.47726 101.136 3.73629 100.74 3.25466C100.124 2.51369 99.1549 2.05059 97.834 1.86535C96.5572 1.6801 95.0602 1.73568 93.3431 2.03206C91.67 2.2914 89.8429 2.75451 87.8616 3.42138C85.9243 4.0512 83.9871 4.8107 82.0498 5.69986C80.1125 6.55197 78.2633 7.51523 76.5022 8.58964C74.7411 9.62699 73.2001 10.7014 71.8792 11.8129C70.5583 12.8873 69.5237 13.9617 68.7752 15.0361C68.0267 16.0734 67.7185 17.0367 67.8506 17.9258C67.9386 18.4075 68.2028 18.8521 68.6431 19.2596C69.0834 19.6671 69.7658 20.0191 70.6904 20.3155C71.615 20.6119 72.8038 20.8527 74.2567 21.0379C75.7097 21.1861 77.4928 21.2232 79.6062 21.1491C79.8704 21.1491 80.0245 21.2602 80.0685 21.4825C80.1125 21.7048 79.9584 21.8159 79.6062 21.8159C78.0652 22.0012 76.216 22.5199 74.0586 23.372C71.9012 24.187 69.7438 25.1318 67.5864 26.2062C65.473 27.2435 63.5138 28.2994 61.7086 29.3738C59.9034 30.4112 58.6046 31.2262 57.8121 31.819C57.1076 32.3377 56.5573 32.8564 56.161 33.375C55.7207 33.8567 55.4565 34.3198 55.3685 34.7644C55.2804 35.2089 55.3905 35.5979 55.6987 35.9314C56.0069 36.2278 56.5352 36.413 57.2837 36.4871C58.3404 36.5612 59.7273 36.4501 61.4444 36.1537C63.2056 35.8202 64.9447 35.3386 66.6618 34.7088C68.1588 34.2272 69.9199 33.5788 71.9452 32.7637C74.0146 31.9487 76.0399 31.1336 78.0212 30.3185C80.0025 29.5035 81.7856 28.7625 83.3707 28.0956C84.9557 27.4288 86.0344 26.9657 86.6068 26.7063C86.7388 26.7063 86.8709 26.6878 87.003 26.6508C87.1791 26.6137 87.3112 26.6322 87.3993 26.7063C87.3993 27.0027 87.3112 27.188 87.1351 27.2621C86.5187 27.5955 85.396 28.1142 83.7669 28.8181C82.1379 29.522 80.3107 30.2815 78.2854 31.0966C76.26 31.9116 74.2127 32.7267 72.1434 33.5418C70.074 34.3198 68.2909 34.9681 66.7939 35.4868C64.0201 36.4501 61.6646 37.0058 59.7273 37.154C57.7901 37.3022 56.3811 37.154 55.5006 36.7094C54.576 36.2648 54.2458 35.5794 54.5099 34.6532C54.7301 33.727 55.6106 32.6341 57.1516 31.3744Z" fill="#131212"/>
<path d="M87.5161 28.2624L87.9124 27.7066C88.0445 27.5214 88.1545 27.3547 88.2426 27.2065C88.3747 27.0212 88.4848 26.8175 88.5728 26.5952V26.484L88.4407 26.5952L88.0445 26.8175C87.6922 27.0027 87.34 27.188 86.9878 27.3732C86.6356 27.5584 86.3274 27.7066 86.0632 27.8178C85.799 27.9289 85.5789 27.8548 85.4028 27.5955C85.2266 27.4473 85.3147 27.2991 85.6669 27.1509C85.9311 27.0398 86.2393 26.9101 86.5915 26.7619C86.9438 26.6137 87.252 26.447 87.5161 26.2617L88.1766 25.8172L88.5728 25.4837V25.3726C88.6609 25.1873 88.793 25.0947 88.9691 25.0947C89.1452 25.0577 89.2773 25.1503 89.3653 25.3726L89.4974 25.5949C89.6295 26.1136 89.5414 26.6322 89.2332 27.1509C89.6295 26.9286 90.1799 26.6322 90.8843 26.2617C91.5888 25.8542 92.3152 25.4837 93.0637 25.1503C93.8562 24.8169 94.6047 24.5575 95.3092 24.3723C96.0577 24.187 96.6741 24.187 97.1584 24.3723C97.4226 24.4834 97.5546 24.6687 97.5546 24.928C97.5546 25.1873 97.4886 25.4652 97.3565 25.7616C97.2685 26.0209 97.1364 26.2803 96.9603 26.5396C96.7841 26.7989 96.6741 27.0027 96.63 27.1509V27.2621C97.0263 27.0398 97.5326 26.7804 98.149 26.484C98.7654 26.1506 99.4038 25.8727 100.064 25.6504C100.725 25.3911 101.363 25.2059 101.98 25.0947C102.64 24.9836 103.19 25.0021 103.631 25.1503C104.027 25.2614 104.159 25.4837 104.027 25.8172C104.027 25.8913 104.027 25.9654 104.027 26.0395C104.027 26.1136 103.983 26.1876 103.895 26.2617C103.675 26.5952 103.344 26.9657 102.904 27.3732C102.464 27.7807 102.112 28.1512 101.847 28.4847C101.627 28.8181 101.627 29.0589 101.847 29.2071C102.112 29.3182 102.838 29.2627 104.027 29.0404C107.153 28.4847 109.795 27.6325 111.952 26.484C112.04 26.3729 112.15 26.3358 112.282 26.3729C112.414 26.4099 112.48 26.484 112.48 26.5952C112.656 26.7434 112.656 26.8916 112.48 27.0398C111.203 27.7066 109.817 28.2809 108.32 28.7625C106.867 29.2441 105.436 29.5961 104.027 29.8184C102.794 30.0036 101.913 30.0407 101.385 29.9295C100.901 29.7813 100.637 29.5776 100.593 29.3182C100.549 29.0219 100.659 28.6884 100.923 28.3179C101.231 27.9104 101.539 27.5214 101.847 27.1509C102.2 26.7804 102.486 26.484 102.706 26.2617C102.97 26.0024 103.058 25.8542 102.97 25.8172C102.662 25.706 102.156 25.7431 101.451 25.9283C100.791 26.1135 100.064 26.3914 99.2718 26.7619C98.4792 27.0953 97.6867 27.4843 96.8942 27.9289C96.1017 28.3735 95.4853 28.781 95.045 29.1515C94.9129 29.2627 94.7808 29.3923 94.6488 29.5405C94.5607 29.6517 94.4726 29.7443 94.3846 29.8184H94.2525C94.0324 29.8184 93.8562 29.7628 93.7242 29.6517C93.5921 29.5035 93.5921 29.3738 93.7242 29.2627C94.3406 28.6328 94.8469 28.0401 95.2431 27.4843C95.6834 26.8916 95.9916 26.4099 96.1677 26.0395C96.3879 25.6319 96.4759 25.3355 96.4319 25.1503C96.4319 24.928 96.2778 24.8539 95.9696 24.928C95.4853 25.0021 94.8689 25.2059 94.1204 25.5393C93.3719 25.8357 92.6014 26.2062 91.8089 26.6508C91.0164 27.0583 90.2459 27.4843 89.4974 27.9289C88.7489 28.3735 88.1325 28.781 87.6482 29.1515C87.5161 29.2627 87.384 29.3923 87.252 29.5405C87.1639 29.6517 87.0758 29.7443 86.9878 29.8184H86.8557C86.6356 29.8184 86.4594 29.7628 86.3274 29.6517C86.1953 29.5035 86.1953 29.3738 86.3274 29.2627L87.5161 28.2624Z" fill="#131212"/>
<path d="M110.762 29.7072C110.497 29.4109 110.453 29.0589 110.63 28.6514C110.806 28.2438 111.026 27.8919 111.29 27.5955C110.894 27.8178 110.586 27.966 110.365 28.0401C110.145 28.0771 109.925 28.1512 109.705 28.2624C109.485 28.3735 109.309 28.3365 109.177 28.1512C109.045 27.966 109.089 27.8178 109.309 27.7066C109.837 27.5214 110.233 27.3547 110.497 27.2065C110.806 27.0583 111.07 26.9286 111.29 26.8175C111.51 26.6693 111.752 26.5211 112.016 26.3729C112.281 26.2247 112.655 26.0395 113.139 25.8172C113.403 25.706 113.602 25.7616 113.734 25.9839C113.91 26.2062 113.888 26.3729 113.668 26.484C113.183 26.7804 112.831 27.0583 112.611 27.3176C112.391 27.577 112.171 27.8548 111.95 28.1512C111.598 28.6328 111.488 28.9478 111.62 29.096C111.752 29.2441 111.994 29.3182 112.347 29.3182C112.699 29.3182 113.095 29.2812 113.535 29.2071C113.976 29.096 114.328 29.0033 114.592 28.9292C115.473 28.7069 116.441 28.392 117.498 27.9845C118.555 27.577 119.611 27.1509 120.668 26.7063C120.8 26.5952 120.91 26.5581 120.998 26.5952C121.086 26.5952 121.196 26.6322 121.329 26.7063C121.461 26.9286 121.373 27.1139 121.064 27.2621C120.624 27.4843 119.898 27.8178 118.885 28.2624C117.916 28.6699 116.882 29.0404 115.781 29.3738C114.68 29.7072 113.646 29.9481 112.677 30.0963C111.708 30.2074 111.07 30.0777 110.762 29.7072ZM113.932 24.0388C113.844 23.9647 113.8 23.8721 113.8 23.761C113.844 23.6498 113.932 23.5943 114.064 23.5943C114.328 23.372 114.592 23.1497 114.856 22.9274C115.165 22.668 115.429 22.3717 115.649 22.0382C115.781 21.7789 115.957 21.7418 116.177 21.9271C116.529 22.0753 116.617 22.2235 116.441 22.3717C115.869 23.2238 115.253 23.8165 114.592 24.15C114.284 24.2982 114.064 24.2611 113.932 24.0388Z" fill="#131212"/>
<path d="M121.08 30.263C120.683 30.1889 120.309 30.0407 119.957 29.8184C119.649 29.5591 119.495 29.2256 119.495 28.8181C119.495 28.5958 119.539 28.355 119.627 28.0956C119.759 27.8363 119.891 27.5584 120.023 27.2621L120.287 27.0398V26.9286C120.067 26.7434 120.111 26.5952 120.419 26.484L120.947 26.2617L121.344 25.706C122.268 24.6687 123.501 23.4831 125.042 22.1494C126.627 20.7786 128.278 19.4819 129.995 18.2593C131.712 16.9996 133.408 15.8882 135.081 14.9249C136.798 13.9246 138.251 13.2577 139.439 12.9243H139.836C140.276 12.9243 140.496 13.0725 140.496 13.3689C140.408 13.7764 140.034 14.2951 139.373 14.9249C138.713 15.5547 137.81 16.2957 136.666 17.1478C136.093 17.5554 135.235 18.1481 134.09 18.9262C132.945 19.7042 131.69 20.5378 130.326 21.4269C129.005 22.3161 127.64 23.1867 126.231 24.0388C124.866 24.891 123.677 25.5949 122.665 26.1506L121.476 26.7063L121.344 26.9286C121.08 27.2621 120.859 27.5955 120.683 27.9289C120.507 28.2253 120.419 28.5217 120.419 28.8181C120.419 29.2627 120.727 29.5405 121.344 29.6517C121.96 29.7628 122.731 29.7813 123.655 29.7072C124.624 29.5961 125.659 29.4109 126.759 29.1515C127.904 28.8922 129.005 28.6143 130.061 28.3179C131.118 27.9845 132.065 27.6511 132.901 27.3176C133.738 26.9842 134.332 26.7063 134.684 26.484C134.949 26.2988 135.169 26.2988 135.345 26.484C135.521 26.6693 135.477 26.8545 135.213 27.0398C134.684 27.4102 133.804 27.8363 132.571 28.3179C131.382 28.7625 130.061 29.17 128.608 29.5405C127.2 29.911 125.791 30.1889 124.382 30.3741C123.017 30.5223 121.916 30.4853 121.08 30.263ZM136.005 16.5921C136.666 16.1475 137.194 15.7585 137.59 15.4251C138.031 15.0546 138.427 14.7026 138.779 14.3692L139.175 14.0358L139.439 13.7023L139.043 13.8135C137.502 14.4062 135.939 15.2028 134.354 16.2031C132.769 17.1664 131.25 18.1852 129.797 19.2596C128.344 20.334 127.023 21.3899 125.835 22.4272C124.646 23.4646 123.677 24.3352 122.929 25.0391L123.853 24.4834C124.646 24.0388 125.637 23.4461 126.825 22.7051C128.014 21.9271 129.203 21.1491 130.392 20.371C131.624 19.593 132.747 18.8521 133.76 18.1481C134.772 17.4442 135.521 16.9255 136.005 16.5921Z" fill="#131212"/>
<path d="M133.496 29.7072C133.232 29.4109 133.188 29.0589 133.364 28.6514C133.54 28.2438 133.76 27.8919 134.024 27.5955C133.628 27.8178 133.32 27.966 133.1 28.0401C132.88 28.0771 132.66 28.1512 132.439 28.2624C132.219 28.3735 132.043 28.3365 131.911 28.1512C131.779 27.966 131.823 27.8178 132.043 27.7066C132.572 27.5214 132.968 27.3547 133.232 27.2065C133.54 27.0583 133.804 26.9286 134.024 26.8175C134.245 26.6693 134.487 26.5211 134.751 26.3729C135.015 26.2247 135.389 26.0395 135.874 25.8172C136.138 25.706 136.336 25.7616 136.468 25.9839C136.644 26.2062 136.622 26.3729 136.402 26.484C135.918 26.7804 135.565 27.0583 135.345 27.3176C135.125 27.577 134.905 27.8548 134.685 28.1512C134.333 28.6328 134.223 28.9478 134.355 29.096C134.487 29.2441 134.729 29.3182 135.081 29.3182C135.433 29.3182 135.83 29.2812 136.27 29.2071C136.71 29.096 137.062 29.0033 137.327 28.9292C138.207 28.7069 139.176 28.392 140.232 27.9845C141.289 27.577 142.346 27.1509 143.403 26.7063C143.535 26.5952 143.645 26.5581 143.733 26.5952C143.821 26.5952 143.931 26.6322 144.063 26.7063C144.195 26.9286 144.107 27.1139 143.799 27.2621C143.359 27.4843 142.632 27.8178 141.619 28.2624C140.651 28.6699 139.616 29.0404 138.515 29.3738C137.415 29.7072 136.38 29.9481 135.411 30.0963C134.443 30.2074 133.804 30.0777 133.496 29.7072ZM136.666 24.0388C136.578 23.9647 136.534 23.8721 136.534 23.761C136.578 23.6498 136.666 23.5943 136.798 23.5943C137.062 23.372 137.327 23.1497 137.591 22.9274C137.899 22.668 138.163 22.3717 138.383 22.0382C138.515 21.7789 138.692 21.7418 138.912 21.9271C139.264 22.0753 139.352 22.2235 139.176 22.3717C138.603 23.2238 137.987 23.8165 137.327 24.15C137.018 24.2982 136.798 24.2611 136.666 24.0388Z" fill="#131212"/>
<path d="M141.172 30.4853C140.644 30.2259 140.446 29.8369 140.578 29.3182C140.71 28.7625 141.04 28.2438 141.569 27.7622C142.097 27.2435 142.757 26.7989 143.55 26.4285C144.342 26.0209 145.135 25.8172 145.927 25.8172C146.456 25.8172 146.918 25.9098 147.314 26.095C147.755 26.2803 148.041 26.484 148.173 26.7063C148.261 26.8175 148.217 26.9286 148.041 27.0398C147.909 27.1139 147.777 27.1139 147.645 27.0398C147.424 26.9286 147.204 26.8175 146.984 26.7063C146.808 26.5581 146.456 26.484 145.927 26.484C145.399 26.484 144.827 26.6322 144.21 26.9286C143.594 27.225 143.044 27.577 142.559 27.9845C142.119 28.355 141.789 28.7255 141.569 29.096C141.392 29.4294 141.437 29.6702 141.701 29.8184C142.097 29.8925 142.625 29.8184 143.286 29.5961C143.946 29.3368 144.629 29.0404 145.333 28.7069C146.082 28.3365 146.786 27.9474 147.446 27.5399C148.151 27.1324 148.745 26.7804 149.23 26.484C149.67 26.1876 149.956 26.1506 150.088 26.3729C150.264 26.5952 150.242 26.7804 150.022 26.9286C149.45 27.2621 149.053 27.6881 148.833 28.2068C148.657 28.6884 148.723 28.9848 149.031 29.096C149.34 29.2071 149.846 29.1515 150.55 28.9292C151.255 28.6699 151.981 28.3735 152.73 28.0401C153.478 27.7066 154.183 27.3732 154.843 27.0398C155.504 26.7063 155.922 26.484 156.098 26.3729C156.362 26.2617 156.56 26.3173 156.692 26.5396C156.869 26.7619 156.846 26.9286 156.626 27.0398C156.318 27.188 155.834 27.4473 155.173 27.8178C154.513 28.1512 153.787 28.4847 152.994 28.8181C152.246 29.1515 151.475 29.4294 150.682 29.6517C149.934 29.874 149.318 29.9295 148.833 29.8184C148.349 29.7072 148.041 29.4664 147.909 29.096C147.821 28.7255 147.887 28.3735 148.107 28.0401C147.623 28.3365 147.05 28.6699 146.39 29.0404C145.729 29.3738 145.047 29.6702 144.342 29.9295C143.638 30.1889 143 30.3926 142.427 30.5408C141.855 30.652 141.437 30.6335 141.172 30.4853Z" fill="#131212"/>
<path d="M57.1516 31.3744C57.8121 30.8187 58.6486 30.2259 59.6613 29.5961C60.718 28.9292 61.8407 28.2809 63.0295 27.6511C64.2623 26.9842 65.5171 26.3358 66.7939 25.706C68.1148 25.0762 69.3696 24.5019 70.5583 23.9833C71.7471 23.4646 72.8478 23.02 73.8605 22.6495C74.8731 22.279 75.6877 22.0012 76.3041 21.8159H75.3795C72.6497 21.6307 70.6244 21.2232 69.3035 20.5933C67.9827 19.9635 67.1902 19.1114 66.926 18.037C66.7058 17.2219 66.948 16.2772 67.6525 15.2028C68.3569 14.1284 69.3696 13.0169 70.6904 11.8684C72.0113 10.7199 73.5743 9.58995 75.3795 8.47849C77.1846 7.32999 79.0779 6.27411 81.0592 5.31085C83.0845 4.34759 85.1098 3.514 87.1351 2.81008C89.2044 2.06911 91.1417 1.55043 92.9469 1.25404C94.7961 0.957659 96.4471 0.920611 97.9001 1.1429C99.3971 1.36519 100.564 1.92092 101.4 2.81008C102.061 3.514 102.149 4.45874 101.665 5.64428C101.18 6.79279 100.168 8.01539 98.6266 9.31208C97.0856 10.5717 95.0162 11.8129 92.4185 13.0354C89.8649 14.221 86.8269 15.2213 83.3046 16.0364C83.2166 16.0364 83.1505 16.0364 83.1065 16.0364C83.0625 15.9993 83.0404 15.8882 83.0404 15.7029C82.9524 15.6288 82.9524 15.5362 83.0404 15.4251C83.1725 15.3139 83.3046 15.2584 83.4367 15.2584C87.003 14.4433 89.9749 13.443 92.3525 12.2574C94.7741 11.0719 96.6673 9.90486 98.0322 8.75636C99.3971 7.57081 100.278 6.47788 100.674 5.47757C101.114 4.47726 101.136 3.73629 100.74 3.25466C100.124 2.51369 99.1549 2.05059 97.834 1.86535C96.5572 1.6801 95.0602 1.73568 93.3431 2.03206C91.67 2.2914 89.8429 2.75451 87.8616 3.42138C85.9243 4.0512 83.9871 4.8107 82.0498 5.69986C80.1125 6.55197 78.2633 7.51523 76.5022 8.58964C74.7411 9.62699 73.2001 10.7014 71.8792 11.8129C70.5583 12.8873 69.5237 13.9617 68.7752 15.0361C68.0267 16.0734 67.7185 17.0367 67.8506 17.9258C67.9386 18.4075 68.2028 18.8521 68.6431 19.2596C69.0834 19.6671 69.7658 20.0191 70.6904 20.3155C71.615 20.6119 72.8038 20.8527 74.2567 21.0379C75.7097 21.1861 77.4928 21.2232 79.6062 21.1491C79.8704 21.1491 80.0245 21.2602 80.0685 21.4825C80.1125 21.7048 79.9584 21.8159 79.6062 21.8159C78.0652 22.0012 76.216 22.5199 74.0586 23.372C71.9012 24.187 69.7438 25.1318 67.5864 26.2062C65.473 27.2435 63.5138 28.2994 61.7086 29.3738C59.9034 30.4112 58.6046 31.2262 57.8121 31.819C57.1076 32.3377 56.5573 32.8564 56.161 33.375C55.7207 33.8567 55.4565 34.3198 55.3685 34.7644C55.2804 35.2089 55.3905 35.5979 55.6987 35.9314C56.0069 36.2278 56.5352 36.413 57.2837 36.4871C58.3404 36.5612 59.7273 36.4501 61.4444 36.1537C63.2056 35.8202 64.9447 35.3386 66.6618 34.7088C68.1588 34.2272 69.9199 33.5788 71.9452 32.7637C74.0146 31.9487 76.0399 31.1336 78.0212 30.3185C80.0025 29.5035 81.7856 28.7625 83.3707 28.0956C84.9557 27.4288 86.0344 26.9657 86.6068 26.7063C86.7388 26.7063 86.8709 26.6878 87.003 26.6508C87.1791 26.6137 87.3112 26.6322 87.3993 26.7063C87.3993 27.0027 87.3112 27.188 87.1351 27.2621C86.5187 27.5955 85.396 28.1142 83.7669 28.8181C82.1379 29.522 80.3107 30.2815 78.2854 31.0966C76.26 31.9116 74.2127 32.7267 72.1434 33.5418C70.074 34.3198 68.2909 34.9681 66.7939 35.4868C64.0201 36.4501 61.6646 37.0058 59.7273 37.154C57.7901 37.3022 56.3811 37.154 55.5006 36.7094C54.576 36.2648 54.2458 35.5794 54.5099 34.6532C54.7301 33.727 55.6106 32.6341 57.1516 31.3744Z" stroke="#131212" stroke-width="0.844907" mask="url(#path-1-outside-1_1089_2750)"/>
<path d="M87.5161 28.2624L87.9124 27.7066C88.0445 27.5214 88.1545 27.3547 88.2426 27.2065C88.3747 27.0212 88.4848 26.8175 88.5728 26.5952V26.484L88.4407 26.5952L88.0445 26.8175C87.6922 27.0027 87.34 27.188 86.9878 27.3732C86.6356 27.5584 86.3274 27.7066 86.0632 27.8178C85.799 27.9289 85.5789 27.8548 85.4028 27.5955C85.2266 27.4473 85.3147 27.2991 85.6669 27.1509C85.9311 27.0398 86.2393 26.9101 86.5915 26.7619C86.9438 26.6137 87.252 26.447 87.5161 26.2617L88.1766 25.8172L88.5728 25.4837V25.3726C88.6609 25.1873 88.793 25.0947 88.9691 25.0947C89.1452 25.0577 89.2773 25.1503 89.3653 25.3726L89.4974 25.5949C89.6295 26.1136 89.5414 26.6322 89.2332 27.1509C89.6295 26.9286 90.1799 26.6322 90.8843 26.2617C91.5888 25.8542 92.3152 25.4837 93.0637 25.1503C93.8562 24.8169 94.6047 24.5575 95.3092 24.3723C96.0577 24.187 96.6741 24.187 97.1584 24.3723C97.4226 24.4834 97.5546 24.6687 97.5546 24.928C97.5546 25.1873 97.4886 25.4652 97.3565 25.7616C97.2685 26.0209 97.1364 26.2803 96.9603 26.5396C96.7841 26.7989 96.6741 27.0027 96.63 27.1509V27.2621C97.0263 27.0398 97.5326 26.7804 98.149 26.484C98.7654 26.1506 99.4038 25.8727 100.064 25.6504C100.725 25.3911 101.363 25.2059 101.98 25.0947C102.64 24.9836 103.19 25.0021 103.631 25.1503C104.027 25.2614 104.159 25.4837 104.027 25.8172C104.027 25.8913 104.027 25.9654 104.027 26.0395C104.027 26.1136 103.983 26.1876 103.895 26.2617C103.675 26.5952 103.344 26.9657 102.904 27.3732C102.464 27.7807 102.112 28.1512 101.847 28.4847C101.627 28.8181 101.627 29.0589 101.847 29.2071C102.112 29.3182 102.838 29.2627 104.027 29.0404C107.153 28.4847 109.795 27.6325 111.952 26.484C112.04 26.3729 112.15 26.3358 112.282 26.3729C112.414 26.4099 112.48 26.484 112.48 26.5952C112.656 26.7434 112.656 26.8916 112.48 27.0398C111.203 27.7066 109.817 28.2809 108.32 28.7625C106.867 29.2441 105.436 29.5961 104.027 29.8184C102.794 30.0036 101.913 30.0407 101.385 29.9295C100.901 29.7813 100.637 29.5776 100.593 29.3182C100.549 29.0219 100.659 28.6884 100.923 28.3179C101.231 27.9104 101.539 27.5214 101.847 27.1509C102.2 26.7804 102.486 26.484 102.706 26.2617C102.97 26.0024 103.058 25.8542 102.97 25.8172C102.662 25.706 102.156 25.7431 101.451 25.9283C100.791 26.1135 100.064 26.3914 99.2718 26.7619C98.4792 27.0953 97.6867 27.4843 96.8942 27.9289C96.1017 28.3735 95.4853 28.781 95.045 29.1515C94.9129 29.2627 94.7808 29.3923 94.6488 29.5405C94.5607 29.6517 94.4726 29.7443 94.3846 29.8184H94.2525C94.0324 29.8184 93.8562 29.7628 93.7242 29.6517C93.5921 29.5035 93.5921 29.3738 93.7242 29.2627C94.3406 28.6328 94.8469 28.0401 95.2431 27.4843C95.6834 26.8916 95.9916 26.4099 96.1677 26.0395C96.3879 25.6319 96.4759 25.3355 96.4319 25.1503C96.4319 24.928 96.2778 24.8539 95.9696 24.928C95.4853 25.0021 94.8689 25.2059 94.1204 25.5393C93.3719 25.8357 92.6014 26.2062 91.8089 26.6508C91.0164 27.0583 90.2459 27.4843 89.4974 27.9289C88.7489 28.3735 88.1325 28.781 87.6482 29.1515C87.5161 29.2627 87.384 29.3923 87.252 29.5405C87.1639 29.6517 87.0758 29.7443 86.9878 29.8184H86.8557C86.6356 29.8184 86.4594 29.7628 86.3274 29.6517C86.1953 29.5035 86.1953 29.3738 86.3274 29.2627L87.5161 28.2624Z" stroke="#131212" stroke-width="0.844907" mask="url(#path-1-outside-1_1089_2750)"/>
<path d="M110.762 29.7072C110.497 29.4109 110.453 29.0589 110.63 28.6514C110.806 28.2438 111.026 27.8919 111.29 27.5955C110.894 27.8178 110.586 27.966 110.365 28.0401C110.145 28.0771 109.925 28.1512 109.705 28.2624C109.485 28.3735 109.309 28.3365 109.177 28.1512C109.045 27.966 109.089 27.8178 109.309 27.7066C109.837 27.5214 110.233 27.3547 110.497 27.2065C110.806 27.0583 111.07 26.9286 111.29 26.8175C111.51 26.6693 111.752 26.5211 112.016 26.3729C112.281 26.2247 112.655 26.0395 113.139 25.8172C113.403 25.706 113.602 25.7616 113.734 25.9839C113.91 26.2062 113.888 26.3729 113.668 26.484C113.183 26.7804 112.831 27.0583 112.611 27.3176C112.391 27.577 112.171 27.8548 111.95 28.1512C111.598 28.6328 111.488 28.9478 111.62 29.096C111.752 29.2441 111.994 29.3182 112.347 29.3182C112.699 29.3182 113.095 29.2812 113.535 29.2071C113.976 29.096 114.328 29.0033 114.592 28.9292C115.473 28.7069 116.441 28.392 117.498 27.9845C118.555 27.577 119.611 27.1509 120.668 26.7063C120.8 26.5952 120.91 26.5581 120.998 26.5952C121.086 26.5952 121.196 26.6322 121.329 26.7063C121.461 26.9286 121.373 27.1139 121.064 27.2621C120.624 27.4843 119.898 27.8178 118.885 28.2624C117.916 28.6699 116.882 29.0404 115.781 29.3738C114.68 29.7072 113.646 29.9481 112.677 30.0963C111.708 30.2074 111.07 30.0777 110.762 29.7072ZM113.932 24.0388C113.844 23.9647 113.8 23.8721 113.8 23.761C113.844 23.6498 113.932 23.5943 114.064 23.5943C114.328 23.372 114.592 23.1497 114.856 22.9274C115.165 22.668 115.429 22.3717 115.649 22.0382C115.781 21.7789 115.957 21.7418 116.177 21.9271C116.529 22.0753 116.617 22.2235 116.441 22.3717C115.869 23.2238 115.253 23.8165 114.592 24.15C114.284 24.2982 114.064 24.2611 113.932 24.0388Z" stroke="#131212" stroke-width="0.844907" mask="url(#path-1-outside-1_1089_2750)"/>
<path d="M121.08 30.263C120.683 30.1889 120.309 30.0407 119.957 29.8184C119.649 29.5591 119.495 29.2256 119.495 28.8181C119.495 28.5958 119.539 28.355 119.627 28.0956C119.759 27.8363 119.891 27.5584 120.023 27.2621L120.287 27.0398V26.9286C120.067 26.7434 120.111 26.5952 120.419 26.484L120.947 26.2617L121.344 25.706C122.268 24.6687 123.501 23.4831 125.042 22.1494C126.627 20.7786 128.278 19.4819 129.995 18.2593C131.712 16.9996 133.408 15.8882 135.081 14.9249C136.798 13.9246 138.251 13.2577 139.439 12.9243H139.836C140.276 12.9243 140.496 13.0725 140.496 13.3689C140.408 13.7764 140.034 14.2951 139.373 14.9249C138.713 15.5547 137.81 16.2957 136.666 17.1478C136.093 17.5554 135.235 18.1481 134.09 18.9262C132.945 19.7042 131.69 20.5378 130.326 21.4269C129.005 22.3161 127.64 23.1867 126.231 24.0388C124.866 24.891 123.677 25.5949 122.665 26.1506L121.476 26.7063L121.344 26.9286C121.08 27.2621 120.859 27.5955 120.683 27.9289C120.507 28.2253 120.419 28.5217 120.419 28.8181C120.419 29.2627 120.727 29.5405 121.344 29.6517C121.96 29.7628 122.731 29.7813 123.655 29.7072C124.624 29.5961 125.659 29.4109 126.759 29.1515C127.904 28.8922 129.005 28.6143 130.061 28.3179C131.118 27.9845 132.065 27.6511 132.901 27.3176C133.738 26.9842 134.332 26.7063 134.684 26.484C134.949 26.2988 135.169 26.2988 135.345 26.484C135.521 26.6693 135.477 26.8545 135.213 27.0398C134.684 27.4102 133.804 27.8363 132.571 28.3179C131.382 28.7625 130.061 29.17 128.608 29.5405C127.2 29.911 125.791 30.1889 124.382 30.3741C123.017 30.5223 121.916 30.4853 121.08 30.263ZM136.005 16.5921C136.666 16.1475 137.194 15.7585 137.59 15.4251C138.031 15.0546 138.427 14.7026 138.779 14.3692L139.175 14.0358L139.439 13.7023L139.043 13.8135C137.502 14.4062 135.939 15.2028 134.354 16.2031C132.769 17.1664 131.25 18.1852 129.797 19.2596C128.344 20.334 127.023 21.3899 125.835 22.4272C124.646 23.4646 123.677 24.3352 122.929 25.0391L123.853 24.4834C124.646 24.0388 125.637 23.4461 126.825 22.7051C128.014 21.9271 129.203 21.1491 130.392 20.371C131.624 19.593 132.747 18.8521 133.76 18.1481C134.772 17.4442 135.521 16.9255 136.005 16.5921Z" stroke="#131212" stroke-width="0.844907" mask="url(#path-1-outside-1_1089_2750)"/>
<path d="M133.496 29.7072C133.232 29.4109 133.188 29.0589 133.364 28.6514C133.54 28.2438 133.76 27.8919 134.024 27.5955C133.628 27.8178 133.32 27.966 133.1 28.0401C132.88 28.0771 132.66 28.1512 132.439 28.2624C132.219 28.3735 132.043 28.3365 131.911 28.1512C131.779 27.966 131.823 27.8178 132.043 27.7066C132.572 27.5214 132.968 27.3547 133.232 27.2065C133.54 27.0583 133.804 26.9286 134.024 26.8175C134.245 26.6693 134.487 26.5211 134.751 26.3729C135.015 26.2247 135.389 26.0395 135.874 25.8172C136.138 25.706 136.336 25.7616 136.468 25.9839C136.644 26.2062 136.622 26.3729 136.402 26.484C135.918 26.7804 135.565 27.0583 135.345 27.3176C135.125 27.577 134.905 27.8548 134.685 28.1512C134.333 28.6328 134.223 28.9478 134.355 29.096C134.487 29.2441 134.729 29.3182 135.081 29.3182C135.433 29.3182 135.83 29.2812 136.27 29.2071C136.71 29.096 137.062 29.0033 137.327 28.9292C138.207 28.7069 139.176 28.392 140.232 27.9845C141.289 27.577 142.346 27.1509 143.403 26.7063C143.535 26.5952 143.645 26.5581 143.733 26.5952C143.821 26.5952 143.931 26.6322 144.063 26.7063C144.195 26.9286 144.107 27.1139 143.799 27.2621C143.359 27.4843 142.632 27.8178 141.619 28.2624C140.651 28.6699 139.616 29.0404 138.515 29.3738C137.415 29.7072 136.38 29.9481 135.411 30.0963C134.443 30.2074 133.804 30.0777 133.496 29.7072ZM136.666 24.0388C136.578 23.9647 136.534 23.8721 136.534 23.761C136.578 23.6498 136.666 23.5943 136.798 23.5943C137.062 23.372 137.327 23.1497 137.591 22.9274C137.899 22.668 138.163 22.3717 138.383 22.0382C138.515 21.7789 138.692 21.7418 138.912 21.9271C139.264 22.0753 139.352 22.2235 139.176 22.3717C138.603 23.2238 137.987 23.8165 137.327 24.15C137.018 24.2982 136.798 24.2611 136.666 24.0388Z" stroke="#131212" stroke-width="0.844907" mask="url(#path-1-outside-1_1089_2750)"/>
<path d="M141.172 30.4853C140.644 30.2259 140.446 29.8369 140.578 29.3182C140.71 28.7625 141.04 28.2438 141.569 27.7622C142.097 27.2435 142.757 26.7989 143.55 26.4285C144.342 26.0209 145.135 25.8172 145.927 25.8172C146.456 25.8172 146.918 25.9098 147.314 26.095C147.755 26.2803 148.041 26.484 148.173 26.7063C148.261 26.8175 148.217 26.9286 148.041 27.0398C147.909 27.1139 147.777 27.1139 147.645 27.0398C147.424 26.9286 147.204 26.8175 146.984 26.7063C146.808 26.5581 146.456 26.484 145.927 26.484C145.399 26.484 144.827 26.6322 144.21 26.9286C143.594 27.225 143.044 27.577 142.559 27.9845C142.119 28.355 141.789 28.7255 141.569 29.096C141.392 29.4294 141.437 29.6702 141.701 29.8184C142.097 29.8925 142.625 29.8184 143.286 29.5961C143.946 29.3368 144.629 29.0404 145.333 28.7069C146.082 28.3365 146.786 27.9474 147.446 27.5399C148.151 27.1324 148.745 26.7804 149.23 26.484C149.67 26.1876 149.956 26.1506 150.088 26.3729C150.264 26.5952 150.242 26.7804 150.022 26.9286C149.45 27.2621 149.053 27.6881 148.833 28.2068C148.657 28.6884 148.723 28.9848 149.031 29.096C149.34 29.2071 149.846 29.1515 150.55 28.9292C151.255 28.6699 151.981 28.3735 152.73 28.0401C153.478 27.7066 154.183 27.3732 154.843 27.0398C155.504 26.7063 155.922 26.484 156.098 26.3729C156.362 26.2617 156.56 26.3173 156.692 26.5396C156.869 26.7619 156.846 26.9286 156.626 27.0398C156.318 27.188 155.834 27.4473 155.173 27.8178C154.513 28.1512 153.787 28.4847 152.994 28.8181C152.246 29.1515 151.475 29.4294 150.682 29.6517C149.934 29.874 149.318 29.9295 148.833 29.8184C148.349 29.7072 148.041 29.4664 147.909 29.096C147.821 28.7255 147.887 28.3735 148.107 28.0401C147.623 28.3365 147.05 28.6699 146.39 29.0404C145.729 29.3738 145.047 29.6702 144.342 29.9295C143.638 30.1889 143 30.3926 142.427 30.5408C141.855 30.652 141.437 30.6335 141.172 30.4853Z" stroke="#131212" stroke-width="0.844907" mask="url(#path-1-outside-1_1089_2750)"/>
<path d="M12.1478 59.3945C14.7724 59.6152 16.747 60.3287 18.0718 61.535C19.4216 62.7267 20.0964 64.2567 20.0964 66.125C20.0964 67.6109 19.7215 68.9202 18.9716 70.053C18.2218 71.1711 17.1345 72.0391 15.7097 72.657C14.31 73.2748 12.6478 73.5838 10.7231 73.5838H0V73.5396C0.624889 72.8629 1.03732 72.3186 1.23728 71.9067C1.43725 71.48 1.53723 70.9357 1.53723 70.2737V49.7731C1.53723 49.1258 1.43725 48.5889 1.23728 48.1622C1.03732 47.7356 0.624889 47.1839 0 46.5072V46.463H10.0482C13.0227 46.463 15.2848 47.0221 16.8345 48.1402C18.3842 49.2582 19.1591 50.7882 19.1591 52.7302C19.1591 54.525 18.5217 56.0035 17.2469 57.1657C15.9972 58.3132 14.2975 59.0414 12.1478 59.3504V59.3945ZM6.56134 59.3283H10.0107C11.4105 59.3283 12.3853 58.8355 12.9352 57.8498C13.5101 56.8494 13.7976 55.3782 13.7976 53.4363C13.7976 51.1855 13.4601 49.5157 12.7852 48.427C12.1353 47.3384 10.9856 46.7941 9.33584 46.7941H6.56134V59.3283ZM10.0857 73.2748C11.7104 73.2748 12.8727 72.7084 13.5726 71.5757C14.2725 70.4282 14.6224 68.6775 14.6224 66.3236C14.6224 64.1316 14.285 62.4766 13.6101 61.3585C12.9352 60.2257 11.7854 59.6593 10.1607 59.6593H6.56134V73.2748H10.0857Z" fill="#131212"/>
<path d="M49.5324 73.7383H47.0578C46.058 73.7383 45.3081 73.6794 44.8082 73.5617C44.3333 73.4293 43.8959 73.1498 43.4959 72.7232C43.096 72.2818 42.5961 71.5462 41.9962 70.5164L36.4097 60.6523H34.0101V70.2737C34.0101 70.921 34.1101 71.458 34.3101 71.8846C34.51 72.3112 34.91 72.8629 35.5098 73.5396V73.5838H27.4488V73.5396C28.0737 72.8629 28.4861 72.3186 28.6861 71.9067C28.886 71.48 28.986 70.9357 28.986 70.2737V49.7731C28.986 49.1258 28.886 48.5889 28.6861 48.1622C28.4861 47.7356 28.0737 47.1839 27.4488 46.5072V46.463H36.7471C40.0465 46.463 42.5711 47.0442 44.3208 48.2064C46.0955 49.3686 46.9828 51.0457 46.9828 53.2377C46.9828 54.9443 46.4454 56.3786 45.3706 57.5408C44.3208 58.6883 42.896 59.5343 41.0963 60.0786L49.5324 73.7383ZM36.7471 60.3655C38.4968 60.3655 39.7466 59.8726 40.4965 58.8869C41.2463 57.8866 41.6213 56.2609 41.6213 54.0101C41.6213 52.1858 41.4463 50.7588 41.0963 49.729C40.7464 48.6845 40.159 47.9342 39.3342 47.4781C38.5093 47.0221 37.372 46.7941 35.9223 46.7941H34.0101V60.3655H36.7471Z" fill="#131212"/>
<path d="M72.4444 73.5838H55.4224V73.5396C56.0473 72.8629 56.4598 72.3186 56.6597 71.9067C56.8597 71.48 56.9597 70.9357 56.9597 70.2737V49.7731C56.9597 49.1258 56.8597 48.5889 56.6597 48.1622C56.4598 47.7356 56.0473 47.1839 55.4224 46.5072V46.463H72.032L72.182 49.6407H72.107C70.4073 48.8316 69.095 48.2284 68.1702 47.8312C67.2703 47.434 66.533 47.1618 65.9581 47.0147C65.4082 46.8676 64.8708 46.7941 64.3459 46.7941H61.9838V59.5269C63.0086 59.5269 64.0834 59.4754 65.2082 59.3724C66.358 59.2547 68.2077 59.012 70.7572 58.6442H70.8322V60.7185H70.7572C68.2077 60.3507 66.358 60.1154 65.2082 60.0124C64.0834 59.8947 63.0086 59.8358 61.9838 59.8358V73.2748H64.6083C65.1082 73.2748 65.6331 73.1939 66.183 73.0321C66.7579 72.8703 67.5328 72.576 68.5076 72.1494C69.4825 71.7081 70.8697 71.046 72.6694 70.1633H72.7444L72.4444 73.5838Z" fill="#131212"/>
<path d="M111.891 46.463V46.5072C110.991 47.8459 110.379 48.8757 110.054 49.5966C109.729 50.3175 109.404 51.4356 109.079 52.9508L104.692 73.5838H100.006L94.9066 49.4421L90.8573 73.5838H86.2456L81.1465 51.1193C80.8966 50.06 80.6341 49.2803 80.3592 48.7801C80.1092 48.2799 79.6343 47.5223 78.9344 46.5072V46.463H87.1829V46.5072C86.708 46.978 86.3706 47.3899 86.1706 47.743C85.9957 48.0813 85.9082 48.427 85.9082 48.7801C85.9082 48.9714 86.0082 49.5598 86.2081 50.5455L86.3206 51.0751L90.6323 71.0019L94.7566 46.463H99.2558L104.505 71.5315L108.479 52.9508C108.729 51.8033 108.854 50.9354 108.854 50.3469C108.854 49.7143 108.629 49.1258 108.179 48.5815C107.729 48.0372 106.879 47.3457 105.63 46.5072V46.463H111.891Z" fill="#131212"/>
<path d="M132.928 49.6849C131.379 48.7433 130.179 48.0519 129.329 47.6106C128.479 47.1692 127.804 46.8823 127.304 46.7499C126.805 46.6175 126.267 46.5513 125.692 46.5513C124.642 46.5513 123.793 46.8382 123.143 47.4119C122.518 47.9857 122.205 48.7948 122.205 49.8393C122.205 50.6779 122.443 51.5165 122.918 52.355C123.393 53.1789 124.03 54.0101 124.83 54.8486C125.63 55.6725 126.73 56.7096 128.129 57.9601C129.579 59.2694 130.691 60.3434 131.466 61.1819C132.241 62.0058 132.866 62.9179 133.341 63.9183C133.841 64.904 134.091 66.0073 134.091 67.2284C134.091 68.4789 133.741 69.6117 133.041 70.6268C132.366 71.6271 131.366 72.4216 130.041 73.01C128.742 73.5838 127.192 73.8707 125.392 73.8707C124.318 73.8707 123.218 73.8045 122.093 73.6721C120.968 73.5544 119.993 73.3925 119.168 73.1866L118.044 68.5745H118.194C119.718 70.0162 120.906 71.0902 121.755 71.7963C122.63 72.4878 123.368 72.9585 123.968 73.2086C124.592 73.444 125.267 73.5617 125.992 73.5617C127.217 73.5617 128.204 73.2086 128.954 72.5025C129.704 71.7816 130.079 70.8621 130.079 69.7441C130.079 68.2288 129.604 66.7944 128.654 65.4409C127.704 64.0875 126.205 62.4986 124.155 60.6744C122.655 59.3357 121.518 58.2691 120.743 57.4746C119.968 56.6655 119.343 55.8343 118.868 54.981C118.419 54.1278 118.194 53.2156 118.194 52.2447C118.194 51.1266 118.531 50.1115 119.206 49.1994C119.881 48.2726 120.856 47.5443 122.13 47.0147C123.43 46.4704 124.955 46.1982 126.705 46.1982C127.679 46.1982 128.679 46.2424 129.704 46.3306C130.754 46.4042 131.704 46.5145 132.554 46.6617L133.003 49.6849H132.928Z" fill="#131212"/>
<path d="M152.804 46.7941V70.2737C152.804 70.9357 152.891 71.4727 153.066 71.8846C153.266 72.2965 153.691 72.8482 154.341 73.5396V73.5838H146.205V73.5396C146.855 72.8482 147.28 72.2965 147.48 71.8846C147.68 71.4727 147.779 70.9357 147.779 70.2737V46.7941H147.217C146.517 46.7941 145.642 47.0074 144.593 47.434C143.543 47.8459 141.931 48.6624 139.756 49.8835H139.643L139.981 46.463H160.602L160.902 49.8835H160.827C158.628 48.6477 157.003 47.8239 155.953 47.4119C154.928 47 154.066 46.7941 153.366 46.7941H152.804Z" fill="#131212"/>
<path d="M184.489 73.5838H167.467V73.5396C168.092 72.8629 168.504 72.3186 168.704 71.9067C168.904 71.48 169.004 70.9357 169.004 70.2737V49.7731C169.004 49.1258 168.904 48.5889 168.704 48.1622C168.504 47.7356 168.092 47.1839 167.467 46.5072V46.463H184.077L184.227 49.6407H184.152C182.452 48.8316 181.14 48.2284 180.215 47.8312C179.315 47.434 178.578 47.1618 178.003 47.0147C177.453 46.8676 176.915 46.7941 176.391 46.7941H174.028V59.5269C175.053 59.5269 176.128 59.4754 177.253 59.3724C178.403 59.2547 180.252 59.012 182.802 58.6442H182.877V60.7185H182.802C180.252 60.3507 178.403 60.1154 177.253 60.0124C176.128 59.8947 175.053 59.8358 174.028 59.8358V73.2748H176.653C177.153 73.2748 177.678 73.1939 178.228 73.0321C178.803 72.8703 179.577 72.576 180.552 72.1494C181.527 71.7081 182.914 71.046 184.714 70.1633H184.789L184.489 73.5838Z" fill="#131212"/>
<path d="M214 73.7383H211.525C210.526 73.7383 209.776 73.6794 209.276 73.5617C208.801 73.4293 208.363 73.1498 207.964 72.7232C207.564 72.2818 207.064 71.5462 206.464 70.5164L200.877 60.6523H198.478V70.2737C198.478 70.921 198.578 71.458 198.778 71.8846C198.978 72.3112 199.378 72.8629 199.977 73.5396V73.5838H191.916V73.5396C192.541 72.8629 192.954 72.3186 193.154 71.9067C193.354 71.48 193.454 70.9357 193.454 70.2737V49.7731C193.454 49.1258 193.354 48.5889 193.154 48.1622C192.954 47.7356 192.541 47.1839 191.916 46.5072V46.463H201.215C204.514 46.463 207.039 47.0442 208.788 48.2064C210.563 49.3686 211.45 51.0457 211.45 53.2377C211.45 54.9443 210.913 56.3786 209.838 57.5408C208.788 58.6883 207.364 59.5343 205.564 60.0786L214 73.7383ZM201.215 60.3655C202.964 60.3655 204.214 59.8726 204.964 58.8869C205.714 57.8866 206.089 56.2609 206.089 54.0101C206.089 52.1858 205.914 50.7588 205.564 49.729C205.214 48.6845 204.627 47.9342 203.802 47.4781C202.977 47.0221 201.84 46.7941 200.39 46.7941H198.478V60.3655H201.215Z" fill="#131212"/>
</svg>
