<svg width="18" height="17" viewBox="0 0 18 17" fill="none" xmlns="http://www.w3.org/2000/svg">
<path fill-rule="evenodd" clip-rule="evenodd" d="M17.4994 5.83301L0.5 5.83301L0.5 16.4996L17.4994 16.4996L17.4994 5.83301ZM5.81985 9.9566C5.97572 9.17979 6.496 8.64278 7.21711 8.51437C7.35329 8.49012 7.70129 8.49785 7.82654 8.5279C8.26508 8.63312 8.63936 8.92005 8.91488 9.36221C8.95727 9.43025 8.99622 9.48591 9.00142 9.48591C9.00662 9.48591 9.04512 9.43096 9.08697 9.36382C9.36606 8.91593 9.74054 8.63026 10.1851 8.52607C10.3344 8.4911 10.6974 8.49153 10.8548 8.52686C11.1813 8.60012 11.4571 8.75173 11.6848 8.98311C11.944 9.24644 12.1139 9.58455 12.1886 9.98547C12.2228 10.1687 12.2195 10.5317 12.182 10.7195C12.0929 11.1658 11.8704 11.5595 11.4394 12.0335C11.1233 12.381 10.8248 12.6563 10.0255 13.337C9.7698 13.5548 9.43502 13.8413 9.28156 13.9736L9.00253 14.2142L8.55781 13.8329C8.31321 13.6231 7.9638 13.324 7.78133 13.1682C7.15087 12.6299 6.86423 12.3633 6.57598 12.047C6.36213 11.8123 6.27074 11.6965 6.14611 11.5024C5.98336 11.249 5.87418 10.9863 5.82075 10.7195C5.78057 10.5189 5.78014 10.1545 5.81985 9.9566Z" fill="#E44C4A"/>
<path d="M14.1903 0.5H9.18945V5.0714H17.5002L14.1903 0.5Z" fill="#E44C4A"/>
<path d="M3.71155 0.5H8.43359V5.0714H0.500562L3.71155 0.5Z" fill="#E44C4A"/>
</svg>
