<svg width="121" height="121" viewBox="0 0 121 121" fill="none" xmlns="http://www.w3.org/2000/svg">
<path opacity="0.8" fill-rule="evenodd" clip-rule="evenodd" d="M10.8377 64.9488C10.7323 63.9242 10.3917 63.161 9.81573 62.6592C9.52336 62.4086 9.18046 62.2233 8.81016 62.116C8.43986 62.0086 8.05077 61.9815 7.66913 62.0367C7.12472 62.0789 6.60837 62.2944 6.19622 62.6512C5.79126 63.016 5.50783 63.4953 5.38386 64.0251C4.8557 63.0441 4.06321 62.6075 3.0064 62.7152C2.20909 62.7966 1.60932 63.1237 1.20709 63.6967C0.804862 64.2696 0.65435 65.0491 0.755566 66.035L1.1595 69.9548L11.2472 68.9259L10.8377 64.9488ZM1.77733 69.1661L1.4575 66.0649C1.29445 64.4856 1.84249 63.6318 3.1016 63.5034C3.36479 63.4615 3.63421 63.482 3.88797 63.5633C4.14173 63.6445 4.37269 63.7843 4.56209 63.9711C4.93083 64.3448 5.15452 64.9144 5.23316 65.6799L5.55299 68.781L1.77733 69.1661ZM6.23028 68.712L5.90517 65.5533C5.8224 64.7495 5.94085 64.1087 6.26056 63.6311C6.42197 63.3933 6.63645 63.1961 6.88718 63.0547C7.13792 62.9134 7.41811 62.8318 7.7058 62.8164C8.0001 62.7716 8.30061 62.7895 8.58744 62.8691C8.87427 62.9486 9.14089 63.0879 9.36966 63.2778C9.80651 63.6539 10.0687 64.2679 10.1563 65.1198L10.4814 68.2785L6.23028 68.712ZM11.2106 52.2406L10.5041 52.173L9.94781 57.8765L5.95391 57.4877L6.50043 51.8855L5.7938 51.8179L5.24821 57.4201L1.2688 57.0333L1.82078 51.3748L1.11415 51.3053L0.492185 57.6835L10.585 58.6619L11.2106 52.2406ZM3.16707 42.8038L11.5221 49.9915L11.771 49.2081L9.52337 47.2883L11.2083 41.9768L14.1545 41.6943L14.3991 40.924L3.41597 42.0203L3.16707 42.8038ZM4.13615 42.6709L10.4537 42.0573L8.94862 46.8046L4.13615 42.6709ZM15.7288 30.9866L10.0951 27.8048L9.73088 28.4458L15.3518 31.6201C16.1585 32.0757 16.6754 32.6743 16.9026 33.416C17.0979 34.1721 16.9911 34.9742 16.6048 35.6534C16.2184 36.3326 15.5826 36.8359 14.8312 37.0574C14.0754 37.2447 13.2942 37.1102 12.4876 36.654L6.86673 33.4797L6.5025 34.1206L12.1108 37.2874C13.119 37.8574 14.092 38.0257 15.0297 37.7922C15.9673 37.5587 16.7073 36.9646 17.2497 36.0101C17.7926 35.0562 17.9226 34.1203 17.6397 33.2024C17.3567 32.2846 16.7195 31.546 15.728 30.9866L15.7288 30.9866ZM22.9719 27.721L15.8229 21.5944L18.024 19.0438L17.4858 18.5827L12.5928 24.2497L13.131 24.7109L15.3414 22.151L22.4905 28.2795L22.9719 27.721ZM26.5653 18.0371L20.2758 15.9198L19.5985 16.4613L26.7551 18.8468L29.1296 21.7975L29.7058 21.3383L27.3316 18.3877L26.538 10.9184L25.8607 11.4599L26.5653 18.0371ZM52.2644 11.343L50.6201 2.09295L53.9445 1.50691L53.8203 0.809643L46.431 2.11278L46.5548 2.80817L49.8926 2.22026L51.5364 11.4723L52.2644 11.343ZM58.8397 10.5908L58.9432 5.88627L64.8807 6.01857L64.7772 10.7213L65.5147 10.7383L65.7386 0.637555L64.9992 0.62243L64.8957 5.3101L58.9582 5.17964L59.0617 0.4901L58.3374 0.474978L58.1154 10.5738L58.8397 10.5908ZM74.6392 2.16493L67.9925 10.9411L68.7939 11.1381L70.568 8.77679L75.9994 10.1029L76.4773 13.0139L77.2637 13.2071L75.4426 2.36001L74.6392 2.16493ZM74.8368 3.11899L75.8696 9.35882L71.0139 8.17334L74.8368 3.11899ZM81.5833 15.1872L85.4626 6.6241L88.5386 8.00793L88.8321 7.36321L81.9915 4.28803L81.6999 4.93275L84.789 6.32221L80.9116 14.8853L81.5833 15.1872ZM96.555 25.6581L99.1249 23.3887L101.629 23.5504L100.408 29.9904L101.042 30.7027L102.468 23.6012L108.468 23.8197L107.834 23.1055L99.8624 22.7385L104.144 18.9588L103.663 18.4189L96.0752 25.1182L96.555 25.6581ZM105.657 38.3471L106.27 37.9911L103.371 33.0404L106.838 31.0281L109.685 35.8906L110.298 35.5346L107.45 30.6721L110.904 28.6653L113.781 33.5766L114.394 33.2206L111.152 27.6851L102.393 32.7741L105.657 38.3471ZM109.164 47.6238L109.835 47.3952L107.98 41.9706L111.779 40.6818L113.6 46.0108L114.273 45.7823L112.45 40.4551L116.236 39.17L118.076 44.5534L118.747 44.3249L116.672 38.2592L107.075 41.5168L109.164 47.6238ZM110.018 51.7231L113.797 51.2458L114.191 54.3254C114.316 55.317 114.699 56.0705 115.34 56.5861C115.98 57.1035 116.779 57.3011 117.737 57.1788C118.706 57.0572 119.435 56.6668 119.925 56.0078C120.415 55.3487 120.597 54.5234 120.471 53.5319L119.987 49.7363L109.928 51.0071L110.018 51.7231ZM119.374 50.5421L119.759 53.5636C119.863 54.3734 119.729 55.0231 119.357 55.5128C118.986 56.0001 118.413 56.293 117.637 56.3916C116.862 56.4901 116.235 56.3488 115.758 55.9676C115.28 55.5852 114.99 54.9885 114.887 54.1775L114.501 51.1579L119.374 50.5421ZM110.624 80.5809L116.778 82.5844L117.007 81.8847L110.866 79.8857C109.984 79.599 109.359 79.1143 108.987 78.432C108.646 77.7293 108.591 76.9222 108.835 76.1804C109.078 75.4385 109.601 74.8195 110.293 74.4534C110.994 74.1207 111.788 74.0976 112.669 74.3845L118.811 76.3835L119.041 75.6839L112.911 73.6894C111.811 73.3308 110.824 73.3587 109.95 73.7732C109.077 74.1876 108.47 74.9162 108.129 75.9589C107.788 77.0016 107.848 77.9444 108.308 78.7875C108.767 79.6305 109.539 80.2283 110.624 80.5809V80.5809ZM105.269 83.3141L108.567 85.2159L107.008 87.9013C106.504 88.7671 106.35 89.5981 106.547 90.3941C106.744 91.1901 107.259 91.8294 108.093 92.312C108.938 92.7987 109.756 92.9282 110.547 92.7006C111.337 92.473 111.984 91.9267 112.488 91.0619L114.411 87.752L105.634 82.6897L105.269 83.3141ZM113.432 88.0213L111.901 90.6569C111.489 91.3645 110.987 91.8005 110.396 91.9651C109.805 92.1297 109.17 92.0166 108.492 91.6259C107.815 91.2355 107.403 90.7448 107.256 90.1537C107.109 89.5626 107.241 88.9133 107.651 88.2056L109.181 85.57L113.432 88.0213ZM83.6697 106.009L91.2176 112.19L91.9269 111.767L90.0211 102.221L97.5463 108.415L98.2536 107.993L89.9118 101.192L89.1912 101.623L91.0895 111.156L83.5359 104.995L82.8153 105.426L84.9055 115.955L85.6148 115.533L83.6697 106.009ZM76.1217 107.946L79.3162 117.535L80.0029 117.308L76.8084 107.719L76.1217 107.946ZM69.6537 109.564L71.4014 118.797L68.0846 119.419L68.2163 120.114L75.5893 118.73L75.4576 118.035L72.1276 118.66L70.3799 109.427L69.6537 109.564ZM63.0859 110.404L63.0088 115.108L57.0694 115.011L57.1465 110.307L56.4071 110.295L56.2435 120.396L56.9828 120.408L57.0581 115.718L62.9975 115.815L62.9203 120.505L63.6447 120.517L63.8102 110.415L63.0859 110.404ZM36.7029 109.368L37.4594 115.939L38.24 116.32L37.3612 108.853L39.0301 105.457L38.3666 105.133L36.6977 108.529L30.2514 112.421L31.0322 112.802L36.7029 109.368ZM25.9701 98.3763C24.6155 98.5456 23.4579 99.2334 22.4973 100.44C21.5433 101.638 21.1425 102.909 21.2947 104.251C21.447 105.593 22.0912 106.712 23.2274 107.609C24.3702 108.511 25.6127 108.882 26.9551 108.721C28.2975 108.56 29.4456 107.88 30.3993 106.681C31.3594 105.475 31.7697 104.197 31.6301 102.847C31.4905 101.496 30.8494 100.37 29.707 99.4671C29.194 99.0376 28.5972 98.7189 27.9542 98.531C27.3113 98.3432 26.6362 98.2904 25.9718 98.3759L25.9701 98.3763ZM29.7736 106.188C28.9517 107.221 27.9734 107.811 26.8387 107.959C25.7077 108.069 24.5777 107.738 23.6872 107.034C22.7967 106.331 22.2152 105.31 22.0653 104.188C21.9472 103.051 22.2991 101.966 23.1211 100.933C23.9489 99.8926 24.9364 99.2945 26.0837 99.1388C27.2163 99.0132 28.353 99.3386 29.246 100.044C30.1391 100.75 30.7161 101.778 30.8514 102.906C30.9606 104.054 30.6012 105.148 29.773 106.188L29.7736 106.188ZM16.2811 90.8165L11.2027 94.8178L11.661 95.3951L16.7282 91.4038C17.4556 90.8308 18.207 90.5792 18.9824 90.649C19.7589 90.7535 20.4646 91.1539 20.951 91.7661C21.4374 92.3782 21.6665 93.1544 21.5903 93.9313C21.4797 94.6994 21.0608 95.3698 20.3337 95.9426L15.2665 99.9351L15.7248 100.512L20.7808 96.5291C21.6896 95.8129 22.2119 94.9782 22.3477 94.0248C22.4836 93.0714 22.2099 92.1645 21.5267 91.304C20.8438 90.4437 20.0223 89.9714 19.0622 89.887C18.102 89.8026 17.1753 90.1125 16.2821 90.8169L16.2811 90.8165Z" fill="#131212" stroke="#131212" stroke-width="0.5"/>
</svg>
